<?xml version="1.0" encoding="utf-8"?>
<!-- Generator: Adobe Illustrator 25.4.1, SVG Export Plug-In . SVG Version: 6.00 Build 0)  -->
<svg version="1.1" id="Layer_1" xmlns="http://www.w3.org/2000/svg" xmlns:xlink="http://www.w3.org/1999/xlink" x="0px" y="0px"
	 viewBox="0 0 1040.17 913.02" style="enable-background:new 0 0 1040.17 913.02;" xml:space="preserve">
<style type="text/css">
	.st0{fill:#F6F6F6;}
	.st1{fill:#E50852;}
	.st2{fill:#537992;}
	.st3{fill:#272B2D;}
	.st4{fill:#E19B4C;}
	.st5{fill:#F2904D;}
	.st6{opacity:0.5;fill:none;stroke:#80BFEA;stroke-width:4;stroke-miterlimit:10;}
	.st7{fill:none;stroke:#263239;stroke-width:3;stroke-miterlimit:10;}
	.st8{fill:none;stroke:#9ACDA3;stroke-width:4;stroke-miterlimit:10;}
	.st9{fill:none;stroke:#C9ADA7;stroke-width:4;stroke-miterlimit:10;}
	.st10{fill:#FFFFFF;stroke:#263239;stroke-miterlimit:10;}
	.st11{fill:none;stroke:#263239;stroke-miterlimit:10;}
	.st12{fill:#7A787D;stroke:#263239;stroke-miterlimit:10;}
	.st13{fill:#23224D;}
	.st14{fill:#FEC905;}
	.st15{fill:#E21C84;}
	.st16{opacity:0.31;}
	.st17{clip-path:url(#SVGID_00000023969175593982776350000017403963164540967562_);}
	.st18{fill:#9ACDA3;}
	.st19{clip-path:url(#SVGID_00000065771043931985466310000007334231781627990449_);}
	.st20{opacity:0.4;fill:#9ACDA3;}
	.st21{fill:#80BFEA;}
	.st22{fill:#1A5D38;}
	.st23{fill:#1FA367;}
	.st24{fill:#0E7D42;}
	.st25{opacity:0.1;fill:#020203;enable-background:new    ;}
	.st26{opacity:0.2;fill:#020203;enable-background:new    ;}
	.st27{fill:url(#SVGID_00000103253945836001720560000014825863970031259015_);}
	.st28{fill:#FFFFFF;}
	.st29{fill:#4EB47F;}
	.st30{fill:#FFFFFF;stroke:#000000;stroke-miterlimit:10;}
	.st31{fill:#123241;}
	.st32{fill:#2057A1;}
	.st33{fill:#123242;}
	.st34{fill:#2F60A7;}
	.st35{fill:#F4983B;}
	.st36{fill:#3399CD;}
	.st37{fill:#020203;}
	.st38{fill:url(#SVGID_00000095315929933305800850000001215514993690800257_);}
	.st39{fill:#F4971D;}
	.st40{fill:#020303;}
	.st41{fill:#AFAEAE;}
	.st42{fill:#FEFEFE;}
	.st43{fill:none;stroke:#4CB9AE;stroke-linecap:round;stroke-linejoin:round;stroke-miterlimit:10;}
	.st44{fill:#4CB9AE;}
	.st45{fill:#6A6A6A;}
	.st46{fill:#F07F4D;}
	.st47{fill:#F6A24D;}
	.st48{fill:#696A6A;}
	.st49{fill:#F0844D;}
	.st50{fill:#F3954E;}
	.st51{fill:#F49A4E;}
	.st52{fill:#EF7D4E;}
	.st53{fill:#F7AA4B;}
	.st54{fill:#F8AD4C;}
	.st55{fill:#F7A84B;}
	.st56{fill:#EE704B;}
	.st57{fill:#F9B14D;}
	.st58{fill:#F6A54C;}
	.st59{fill:#EC664C;}
	.st60{fill:#F8AE4C;}
	.st61{fill:#F3944E;}
	.st62{fill:#F4984E;}
	.st63{fill:#EE754C;}
	.st64{fill:#FABA4C;}
	.st65{fill:#F0834D;}
	.st66{fill:#F3924D;}
	.st67{fill:#ED694C;}
	.st68{fill:#ED6A4C;}
	.st69{fill:#F49B4E;}
	.st70{fill:#EF784D;}
	.st71{fill:#FBBC4B;}
	.st72{fill:#EF7D4D;}
	.st73{fill:#F59E4E;}
	.st74{fill:#F28C4D;}
	.st75{fill:#EC674C;}
	.st76{fill:#F8B04D;}
	.st77{fill:#F1884D;}
	.st78{fill:#F59F4D;}
	.st79{fill:#EE744C;}
	.st80{fill:#F28F4D;}
	.st81{fill:#F6A34D;}
	.st82{fill:#F9B54D;}
	.st83{fill:#ED6D4C;}
	.st84{fill:#F6A64C;}
	.st85{fill:#F1894D;}
	.st86{clip-path:url(#SVGID_00000127751359858243287590000007639638241658339727_);}
	.st87{fill:url(#SVGID_00000115493905618869871010000009065226180727297169_);}
	.st88{clip-path:url(#SVGID_00000169546488228423851440000006744340293945220536_);}
	.st89{fill:url(#SVGID_00000126304490617519819360000013940492771011415716_);}
	.st90{fill:#435166;}
	.st91{fill:url(#SVGID_00000100341747606119605720000008106054265934107040_);}
	.st92{fill:#86C8AE;}
	.st93{fill:#FEF5F5;}
	.st94{fill:#EC6471;}
	.st95{fill:#EFE2DC;}
	.st96{fill-rule:evenodd;clip-rule:evenodd;fill:#FFE176;stroke:#212023;stroke-width:2;stroke-miterlimit:10;}
	.st97{fill:#FFE176;stroke:#212023;stroke-width:2;stroke-miterlimit:10;}
	.st98{fill:#FECA2A;stroke:#212023;stroke-width:2;stroke-miterlimit:10;}
	.st99{fill-rule:evenodd;clip-rule:evenodd;fill:#EC6471;}
	.st100{fill-rule:evenodd;clip-rule:evenodd;fill:#FFE176;}
	.st101{fill-rule:evenodd;clip-rule:evenodd;fill:#86C8AE;}
	.st102{fill-rule:evenodd;clip-rule:evenodd;fill:#2DB1D4;}
	.st103{fill-rule:evenodd;clip-rule:evenodd;fill:#F9D0B4;}
	.st104{fill-rule:evenodd;clip-rule:evenodd;fill:#FFFFFF;}
	.st105{fill-rule:evenodd;clip-rule:evenodd;fill:#212023;}
	.st106{fill:#B4D280;}
	.st107{fill:#A1C96A;}
	.st108{fill:#666D78;}
	.st109{fill:#F1D0B4;}
	.st110{fill:#010202;}
	.st111{opacity:0.6;fill-rule:evenodd;clip-rule:evenodd;fill:#FFFFFF;}
	.st112{fill:none;stroke:#808181;stroke-width:0.8035;}
	.st113{fill:none;stroke:#343434;stroke-width:0.8035;}
	.st114{fill:#343434;}
	.st115{opacity:0.6;fill-rule:evenodd;clip-rule:evenodd;fill:#FFE075;}
	.st116{fill:#FFE075;}
	.st117{fill:none;stroke:#343434;stroke-width:1.0361;}
	.st118{fill-rule:evenodd;clip-rule:evenodd;fill:#E1EED6;}
	.st119{fill-rule:evenodd;clip-rule:evenodd;fill:#CCE1B2;}
	.st120{fill-rule:evenodd;clip-rule:evenodd;fill:#AED081;}
	.st121{fill-rule:evenodd;clip-rule:evenodd;fill:#91C251;}
	.st122{fill-rule:evenodd;clip-rule:evenodd;fill:#FFFFFF;stroke:#706F6F;stroke-miterlimit:10;}
	.st123{fill:#91C251;}
	.st124{fill:url(#SVGID_00000126323597848294360250000008219298062280223927_);}
	.st125{fill:none;stroke:#C9ACA6;stroke-width:4;stroke-miterlimit:10;}
	.st126{opacity:0.5;fill:none;stroke:#81BEE9;stroke-width:4;stroke-miterlimit:10;}
	.st127{fill:none;stroke:#575756;stroke-width:2;stroke-miterlimit:10;}
	.st128{fill:#575756;}
	.st129{fill:none;stroke:#00B0C8;stroke-width:1.3334;stroke-miterlimit:8;}
	.st130{clip-path:url(#SVGID_00000168098675087906949340000005661343133066654348_);}
	.st131{clip-path:url(#SVGID_00000096057422595365575190000013170838237858466197_);}
	.st132{clip-path:url(#SVGID_00000124856961584224566790000016313980639652244389_);}
	.st133{clip-path:url(#SVGID_00000030477662987855882680000009582362991061476003_);}
	.st134{fill:#F2AD97;}
	.st135{fill:#B34B48;}
	.st136{fill:#422139;}
	.st137{fill:#6E5066;}
	.st138{fill:#ED8A85;}
	.st139{fill:#ED6F6E;}
	.st140{fill:#EE777E;}
	.st141{fill:#D43C48;}
	.st142{fill:#F6A02D;}
	.st143{fill:none;}
	.st144{fill:#1E1E1C;}
	.st145{font-family:'FuturaBT-MediumCondensed';}
	.st146{font-size:22px;}
	.st147{font-family:'FuturaBT-LightCondensed';}
</style>
<g>
	<g>
		<g>
			<g>
				<path class="st111" d="M135.17,737.87h204.77c1.06,0,2.09,0.21,3.07,0.64c0.98,0.43,1.85,1.03,2.6,1.82
					c0.75,0.79,1.33,1.7,1.74,2.72c0.41,1.03,0.61,2.1,0.61,3.21v25.19c0,1.11-0.2,2.18-0.61,3.21c-0.41,1.03-0.99,1.94-1.74,2.72
					c-0.75,0.79-1.62,1.39-2.6,1.82s-2.01,0.64-3.07,0.64H135.17c-1.06,0-2.09-0.21-3.07-0.64c-0.98-0.43-1.85-1.03-2.6-1.82
					c-0.75-0.79-1.33-1.7-1.74-2.72c-0.41-1.03-0.61-2.1-0.61-3.21v-25.19c0-1.11,0.2-2.18,0.61-3.21c0.41-1.03,0.99-1.94,1.74-2.72
					c0.75-0.79,1.62-1.39,2.6-1.82C133.08,738.09,134.11,737.87,135.17,737.87z"/>
				<path class="st112" d="M135.17,737.87h204.77c1.06,0,2.09,0.21,3.07,0.64c0.98,0.43,1.85,1.03,2.6,1.82
					c0.75,0.79,1.33,1.7,1.74,2.72c0.41,1.03,0.61,2.1,0.61,3.21v25.19c0,1.11-0.2,2.18-0.61,3.21c-0.41,1.03-0.99,1.94-1.74,2.72
					c-0.75,0.79-1.62,1.39-2.6,1.82c-0.98,0.43-2.01,0.64-3.07,0.64H135.17c-1.06,0-2.09-0.21-3.07-0.64s-1.85-1.03-2.6-1.82
					c-0.75-0.79-1.33-1.7-1.74-2.72c-0.41-1.03-0.61-2.1-0.61-3.21v-25.19c0-1.11,0.2-2.18,0.61-3.21c0.41-1.03,0.99-1.94,1.74-2.72
					c0.75-0.79,1.62-1.39,2.6-1.82C133.08,738.09,134.11,737.87,135.17,737.87z"/>
			</g>
		</g>
	</g>
	<g>
		<g>
			<path class="st111" d="M46.83,49.36h239.51c1.11,0,2.21,0.06,3.3,0.18s2.15,0.3,3.18,0.54c1.03,0.24,2,0.53,2.93,0.88
				c0.92,0.35,1.78,0.74,2.57,1.19c0.79,0.44,1.49,0.92,2.11,1.44c0.62,0.52,1.14,1.07,1.56,1.65c0.43,0.58,0.75,1.17,0.96,1.79
				c0.22,0.61,0.33,1.23,0.33,1.86v28.6c0,0.63-0.11,1.25-0.33,1.86c-0.22,0.61-0.54,1.21-0.96,1.79c-0.43,0.58-0.95,1.13-1.56,1.65
				c-0.62,0.52-1.32,1-2.11,1.44c-0.79,0.44-1.64,0.84-2.57,1.19c-0.92,0.35-1.9,0.64-2.93,0.88c-1.03,0.24-2.09,0.42-3.18,0.54
				s-2.19,0.18-3.3,0.18H46.83c-1.11,0-2.21-0.06-3.3-0.18c-1.09-0.12-2.15-0.3-3.18-0.54c-1.03-0.24-2-0.53-2.93-0.88
				c-0.92-0.35-1.78-0.74-2.57-1.19c-0.79-0.44-1.49-0.92-2.11-1.44c-0.62-0.52-1.14-1.07-1.56-1.65c-0.43-0.58-0.75-1.17-0.96-1.79
				c-0.22-0.61-0.33-1.23-0.33-1.86v-28.6c0-0.63,0.11-1.25,0.33-1.86c0.22-0.61,0.54-1.21,0.96-1.79c0.43-0.58,0.95-1.13,1.56-1.65
				c0.62-0.52,1.32-1,2.11-1.44c0.79-0.44,1.64-0.84,2.57-1.19c0.92-0.35,1.9-0.64,2.93-0.88c1.03-0.24,2.09-0.42,3.18-0.54
				C44.61,49.42,45.72,49.36,46.83,49.36z"/>
			<path class="st112" d="M46.83,49.36h239.51c1.11,0,2.21,0.06,3.3,0.18c1.09,0.12,2.15,0.3,3.18,0.54c1.03,0.24,2,0.53,2.93,0.88
				c0.92,0.35,1.78,0.74,2.57,1.19c0.79,0.44,1.49,0.92,2.11,1.44c0.62,0.52,1.14,1.07,1.56,1.65c0.43,0.58,0.75,1.17,0.96,1.79
				c0.22,0.61,0.33,1.23,0.33,1.86v28.6c0,0.63-0.11,1.25-0.33,1.86c-0.22,0.61-0.54,1.21-0.96,1.79c-0.43,0.58-0.95,1.13-1.56,1.65
				c-0.62,0.52-1.32,1-2.11,1.44c-0.79,0.44-1.64,0.84-2.57,1.19c-0.92,0.35-1.9,0.64-2.93,0.88c-1.03,0.24-2.09,0.42-3.18,0.54
				c-1.09,0.12-2.19,0.18-3.3,0.18H46.83c-1.11,0-2.21-0.06-3.3-0.18c-1.09-0.12-2.15-0.3-3.18-0.54c-1.03-0.24-2-0.53-2.93-0.88
				c-0.92-0.35-1.78-0.74-2.57-1.19c-0.79-0.44-1.49-0.92-2.11-1.44c-0.62-0.52-1.14-1.07-1.56-1.65c-0.43-0.58-0.75-1.17-0.96-1.79
				c-0.22-0.61-0.33-1.23-0.33-1.86v-28.6c0-0.63,0.11-1.25,0.33-1.86c0.22-0.61,0.54-1.21,0.96-1.79c0.43-0.58,0.95-1.13,1.56-1.65
				c0.62-0.52,1.32-1,2.11-1.44c0.79-0.44,1.64-0.84,2.57-1.19c0.92-0.35,1.9-0.64,2.93-0.88c1.03-0.24,2.09-0.42,3.18-0.54
				C44.61,49.42,45.72,49.36,46.83,49.36z"/>
		</g>
	</g>
	<g>
		<g>
			<g>
				<path class="st111" d="M46.08,286.04h229c1.06,0,2.12,0.06,3.16,0.18c1.04,0.12,2.06,0.3,3.04,0.54
					c0.98,0.24,1.92,0.53,2.8,0.88c0.88,0.35,1.7,0.74,2.45,1.19c0.75,0.44,1.42,0.92,2.01,1.44c0.59,0.52,1.09,1.07,1.5,1.65
					c0.41,0.58,0.71,1.17,0.92,1.79c0.21,0.61,0.31,1.23,0.31,1.86v28.6c0,0.63-0.1,1.25-0.31,1.86c-0.21,0.61-0.51,1.21-0.92,1.79
					c-0.41,0.58-0.91,1.13-1.5,1.65c-0.59,0.52-1.26,1-2.01,1.44c-0.75,0.44-1.57,0.84-2.45,1.19c-0.88,0.35-1.82,0.64-2.8,0.88
					c-0.98,0.24-1.99,0.42-3.04,0.54c-1.04,0.12-2.1,0.18-3.16,0.18h-229c-1.06,0-2.12-0.06-3.16-0.18
					c-1.04-0.12-2.06-0.3-3.04-0.54c-0.98-0.24-1.92-0.53-2.8-0.88c-0.88-0.35-1.7-0.74-2.45-1.19c-0.75-0.44-1.42-0.92-2.01-1.44
					c-0.59-0.52-1.09-1.07-1.5-1.65c-0.41-0.58-0.71-1.17-0.92-1.79c-0.21-0.61-0.31-1.23-0.31-1.86v-28.6
					c0-0.63,0.1-1.25,0.31-1.86c0.21-0.61,0.51-1.21,0.92-1.79c0.41-0.58,0.91-1.13,1.5-1.65c0.59-0.52,1.26-1,2.01-1.44
					c0.75-0.44,1.57-0.84,2.45-1.19c0.88-0.35,1.82-0.64,2.8-0.88c0.98-0.24,1.99-0.42,3.04-0.54
					C43.97,286.1,45.02,286.04,46.08,286.04z"/>
				<path class="st112" d="M46.08,286.04h229c1.06,0,2.12,0.06,3.16,0.18s2.06,0.3,3.04,0.54c0.98,0.24,1.92,0.53,2.8,0.88
					c0.88,0.35,1.7,0.74,2.45,1.19c0.75,0.44,1.42,0.92,2.01,1.44c0.59,0.52,1.09,1.07,1.5,1.65c0.41,0.58,0.71,1.17,0.92,1.79
					s0.31,1.23,0.31,1.86v28.6c0,0.63-0.1,1.25-0.31,1.86s-0.51,1.21-0.92,1.79c-0.41,0.58-0.91,1.13-1.5,1.65
					c-0.59,0.52-1.26,1-2.01,1.44c-0.75,0.44-1.57,0.84-2.45,1.19c-0.88,0.35-1.82,0.64-2.8,0.88c-0.98,0.24-1.99,0.42-3.04,0.54
					c-1.04,0.12-2.1,0.18-3.16,0.18h-229c-1.06,0-2.12-0.06-3.16-0.18c-1.04-0.12-2.06-0.3-3.04-0.54c-0.98-0.24-1.92-0.53-2.8-0.88
					c-0.88-0.35-1.7-0.74-2.45-1.19c-0.75-0.44-1.42-0.92-2.01-1.44c-0.59-0.52-1.09-1.07-1.5-1.65c-0.41-0.58-0.71-1.17-0.92-1.79
					c-0.21-0.61-0.31-1.23-0.31-1.86v-28.6c0-0.63,0.1-1.25,0.31-1.86c0.21-0.61,0.51-1.21,0.92-1.79c0.41-0.58,0.91-1.13,1.5-1.65
					c0.59-0.52,1.26-1,2.01-1.44c0.75-0.44,1.57-0.84,2.45-1.19c0.88-0.35,1.82-0.64,2.8-0.88c0.98-0.24,1.99-0.42,3.04-0.54
					S45.02,286.04,46.08,286.04z"/>
			</g>
		</g>
	</g>
	<g>
		<g>
			<g>
				<path class="st111" d="M48.73,549h266.36c1.24,0,2.46,0.06,3.67,0.18c1.21,0.12,2.39,0.3,3.53,0.54s2.23,0.53,3.26,0.88
					s1.98,0.74,2.85,1.19s1.65,0.92,2.34,1.44c0.69,0.52,1.27,1.07,1.74,1.65c0.47,0.58,0.83,1.17,1.07,1.79
					c0.24,0.61,0.36,1.23,0.36,1.86v28.6c0,0.63-0.12,1.25-0.36,1.86c-0.24,0.61-0.6,1.21-1.07,1.79c-0.47,0.58-1.05,1.13-1.74,1.65
					c-0.69,0.52-1.47,1-2.34,1.44c-0.87,0.44-1.83,0.84-2.85,1.19s-2.11,0.64-3.26,0.88c-1.14,0.24-2.32,0.42-3.53,0.54
					c-1.21,0.12-2.44,0.18-3.67,0.18H48.73c-1.24,0-2.46-0.06-3.67-0.18c-1.21-0.12-2.39-0.3-3.53-0.54
					c-1.14-0.24-2.23-0.53-3.26-0.88s-1.98-0.74-2.85-1.19c-0.87-0.44-1.65-0.92-2.34-1.44c-0.69-0.52-1.27-1.07-1.74-1.65
					c-0.47-0.58-0.83-1.17-1.07-1.79c-0.24-0.61-0.36-1.23-0.36-1.86v-28.6c0-0.63,0.12-1.25,0.36-1.86
					c0.24-0.61,0.6-1.21,1.07-1.79c0.47-0.58,1.05-1.13,1.74-1.65c0.69-0.52,1.47-1,2.34-1.44s1.83-0.84,2.85-1.19
					s2.11-0.64,3.26-0.88c1.14-0.24,2.32-0.42,3.53-0.54C46.26,549.06,47.49,549,48.73,549z"/>
				<path class="st112" d="M48.73,549h266.36c1.24,0,2.46,0.06,3.67,0.18c1.21,0.12,2.39,0.3,3.53,0.54
					c1.14,0.24,2.23,0.53,3.26,0.88c1.03,0.35,1.98,0.74,2.85,1.19c0.87,0.44,1.65,0.92,2.34,1.44c0.69,0.52,1.27,1.07,1.74,1.65
					c0.47,0.58,0.83,1.17,1.07,1.79c0.24,0.61,0.36,1.23,0.36,1.86v28.6c0,0.63-0.12,1.25-0.36,1.86c-0.24,0.61-0.6,1.21-1.07,1.79
					c-0.47,0.58-1.05,1.13-1.74,1.65c-0.69,0.52-1.47,1-2.34,1.44c-0.87,0.44-1.83,0.84-2.85,1.19c-1.03,0.35-2.11,0.64-3.26,0.88
					c-1.14,0.24-2.32,0.42-3.53,0.54c-1.21,0.12-2.44,0.18-3.67,0.18H48.73c-1.24,0-2.46-0.06-3.67-0.18
					c-1.21-0.12-2.39-0.3-3.53-0.54c-1.14-0.24-2.23-0.53-3.26-0.88c-1.03-0.35-1.98-0.74-2.85-1.19c-0.87-0.44-1.65-0.92-2.34-1.44
					c-0.69-0.52-1.27-1.07-1.74-1.65c-0.47-0.58-0.83-1.17-1.07-1.79c-0.24-0.61-0.36-1.23-0.36-1.86v-28.6
					c0-0.63,0.12-1.25,0.36-1.86c0.24-0.61,0.6-1.21,1.07-1.79c0.47-0.58,1.05-1.13,1.74-1.65c0.69-0.52,1.47-1,2.34-1.44
					c0.87-0.44,1.83-0.84,2.85-1.19c1.03-0.35,2.11-0.64,3.26-0.88c1.14-0.24,2.32-0.42,3.53-0.54C46.26,549.06,47.49,549,48.73,549
					z"/>
			</g>
		</g>
	</g>
	<g>
		<g>
			<path class="st111" d="M816.63,47.58h180.95c0.79,0,1.58,0.06,2.35,0.19c0.78,0.12,1.53,0.31,2.26,0.55
				c0.73,0.24,1.43,0.54,2.09,0.89c0.66,0.35,1.27,0.75,1.83,1.2c0.56,0.45,1.06,0.94,1.5,1.46c0.44,0.53,0.81,1.08,1.12,1.67
				c0.3,0.59,0.53,1.19,0.69,1.81c0.15,0.62,0.23,1.25,0.23,1.88v28.95c0,0.63-0.08,1.26-0.23,1.88c-0.15,0.62-0.38,1.22-0.69,1.81
				c-0.3,0.59-0.67,1.14-1.12,1.67c-0.44,0.53-0.94,1.01-1.5,1.46c-0.56,0.45-1.17,0.85-1.83,1.2c-0.66,0.35-1.35,0.65-2.09,0.89
				c-0.73,0.24-1.49,0.43-2.26,0.55c-0.78,0.12-1.56,0.19-2.35,0.19H816.63c-0.79,0-1.58-0.06-2.35-0.19
				c-0.78-0.12-1.53-0.31-2.26-0.55c-0.73-0.24-1.43-0.54-2.09-0.89c-0.66-0.35-1.27-0.75-1.83-1.2c-0.56-0.45-1.06-0.94-1.5-1.46
				c-0.44-0.53-0.81-1.08-1.12-1.67c-0.3-0.59-0.53-1.19-0.69-1.81c-0.15-0.62-0.23-1.25-0.23-1.88V57.23
				c0-0.63,0.08-1.26,0.23-1.88c0.15-0.62,0.38-1.22,0.69-1.81c0.3-0.59,0.67-1.14,1.12-1.67c0.44-0.53,0.94-1.01,1.5-1.46
				c0.56-0.45,1.17-0.85,1.83-1.2c0.66-0.35,1.35-0.65,2.09-0.89c0.73-0.24,1.49-0.43,2.26-0.55
				C815.05,47.64,815.84,47.58,816.63,47.58z"/>
			<path class="st112" d="M816.63,47.58h180.95c0.79,0,1.58,0.06,2.35,0.19c0.78,0.12,1.53,0.31,2.26,0.55
				c0.73,0.24,1.43,0.54,2.09,0.89c0.66,0.35,1.27,0.75,1.83,1.2c0.56,0.45,1.06,0.94,1.5,1.46c0.44,0.53,0.81,1.08,1.12,1.67
				c0.3,0.59,0.53,1.19,0.69,1.81c0.15,0.62,0.23,1.25,0.23,1.88v28.95c0,0.63-0.08,1.26-0.23,1.88c-0.15,0.62-0.38,1.22-0.69,1.81
				c-0.3,0.59-0.67,1.14-1.12,1.67c-0.44,0.53-0.94,1.01-1.5,1.46c-0.56,0.45-1.17,0.85-1.83,1.2c-0.66,0.35-1.35,0.65-2.09,0.89
				s-1.49,0.43-2.26,0.55c-0.78,0.12-1.56,0.19-2.35,0.19H816.63c-0.79,0-1.58-0.06-2.35-0.19c-0.78-0.12-1.53-0.31-2.26-0.55
				c-0.73-0.24-1.43-0.54-2.09-0.89c-0.66-0.35-1.27-0.75-1.83-1.2c-0.56-0.45-1.06-0.94-1.5-1.46c-0.44-0.53-0.81-1.08-1.12-1.67
				c-0.3-0.59-0.53-1.19-0.69-1.81c-0.15-0.62-0.23-1.25-0.23-1.88V57.23c0-0.63,0.08-1.26,0.23-1.88c0.15-0.62,0.38-1.22,0.69-1.81
				s0.67-1.14,1.12-1.67c0.44-0.53,0.94-1.01,1.5-1.46c0.56-0.45,1.17-0.85,1.83-1.2c0.66-0.35,1.35-0.65,2.09-0.89
				c0.73-0.24,1.49-0.43,2.26-0.55C815.05,47.64,815.84,47.58,816.63,47.58z"/>
		</g>
	</g>
	<g>
		<g>
			<g>
				<path class="st111" d="M815.91,423.83h184.01c0.71,0,1.42,0.05,2.11,0.15c0.7,0.1,1.38,0.25,2.03,0.44
					c0.66,0.2,1.28,0.43,1.87,0.72c0.59,0.28,1.14,0.6,1.64,0.97c0.5,0.36,0.95,0.75,1.35,1.18c0.4,0.42,0.73,0.87,1,1.34
					c0.27,0.47,0.48,0.96,0.62,1.46c0.14,0.5,0.21,1,0.21,1.51v23.28c0,0.51-0.07,1.01-0.21,1.51c-0.14,0.5-0.34,0.99-0.62,1.46
					c-0.27,0.47-0.61,0.92-1,1.34c-0.4,0.42-0.84,0.82-1.35,1.18c-0.5,0.36-1.05,0.68-1.64,0.97c-0.59,0.28-1.22,0.52-1.87,0.72
					c-0.66,0.2-1.34,0.34-2.03,0.44c-0.7,0.1-1.4,0.15-2.11,0.15H815.91c-0.71,0-1.42-0.05-2.11-0.15c-0.7-0.1-1.38-0.25-2.03-0.44
					c-0.66-0.2-1.28-0.43-1.87-0.72c-0.59-0.28-1.14-0.6-1.64-0.97c-0.5-0.36-0.95-0.75-1.35-1.18c-0.4-0.42-0.73-0.87-1-1.34
					s-0.48-0.96-0.62-1.46c-0.14-0.5-0.21-1-0.21-1.51v-23.28c0-0.51,0.07-1.01,0.21-1.51c0.14-0.5,0.34-0.99,0.62-1.46
					c0.27-0.47,0.61-0.92,1-1.34c0.4-0.42,0.84-0.82,1.35-1.18c0.5-0.36,1.05-0.68,1.64-0.97c0.59-0.28,1.22-0.52,1.87-0.72
					c0.66-0.2,1.34-0.34,2.03-0.44C814.5,423.88,815.2,423.83,815.91,423.83z"/>
				<path class="st112" d="M815.91,423.83h184.01c0.71,0,1.42,0.05,2.11,0.15c0.7,0.1,1.38,0.25,2.03,0.44
					c0.66,0.2,1.28,0.43,1.87,0.72c0.59,0.28,1.14,0.6,1.64,0.97c0.5,0.36,0.95,0.75,1.35,1.18c0.4,0.42,0.73,0.87,1,1.34
					c0.27,0.47,0.48,0.96,0.62,1.46c0.14,0.5,0.21,1,0.21,1.51v23.28c0,0.51-0.07,1.01-0.21,1.51c-0.14,0.5-0.34,0.99-0.62,1.46
					c-0.27,0.47-0.61,0.92-1,1.34c-0.4,0.42-0.84,0.82-1.35,1.18c-0.5,0.36-1.05,0.68-1.64,0.97c-0.59,0.28-1.22,0.52-1.87,0.72
					c-0.66,0.2-1.34,0.34-2.03,0.44c-0.7,0.1-1.4,0.15-2.11,0.15H815.91c-0.71,0-1.42-0.05-2.11-0.15c-0.7-0.1-1.38-0.25-2.03-0.44
					c-0.66-0.2-1.28-0.43-1.87-0.72c-0.59-0.28-1.14-0.6-1.64-0.97c-0.5-0.36-0.95-0.75-1.35-1.18s-0.73-0.87-1-1.34
					c-0.27-0.47-0.48-0.96-0.62-1.46c-0.14-0.5-0.21-1-0.21-1.51v-23.28c0-0.51,0.07-1.01,0.21-1.51c0.14-0.5,0.34-0.99,0.62-1.46
					c0.27-0.47,0.61-0.92,1-1.34s0.84-0.82,1.35-1.18c0.5-0.36,1.05-0.68,1.64-0.97c0.59-0.28,1.22-0.52,1.87-0.72
					c0.66-0.2,1.34-0.34,2.03-0.44C814.5,423.88,815.2,423.83,815.91,423.83z"/>
			</g>
		</g>
	</g>
	<g>
		<g>
			<g>
				<path class="st111" d="M898.23,620.25h104.16c0.48,0,0.96,0.05,1.44,0.15c0.47,0.1,0.93,0.24,1.38,0.44
					c0.45,0.19,0.87,0.43,1.27,0.71c0.4,0.28,0.77,0.6,1.12,0.95c0.34,0.36,0.65,0.74,0.92,1.16c0.27,0.42,0.5,0.86,0.68,1.32
					c0.19,0.46,0.32,0.94,0.42,1.44c0.09,0.49,0.14,0.99,0.14,1.49v22.98c0,0.5-0.05,1-0.14,1.49c-0.09,0.49-0.23,0.97-0.42,1.44
					c-0.19,0.46-0.41,0.91-0.68,1.32c-0.27,0.42-0.57,0.81-0.92,1.16c-0.34,0.36-0.71,0.67-1.12,0.95c-0.4,0.28-0.83,0.52-1.27,0.71
					c-0.45,0.19-0.91,0.34-1.38,0.44c-0.47,0.1-0.95,0.15-1.44,0.15H898.23c-0.48,0-0.96-0.05-1.44-0.15
					c-0.47-0.1-0.93-0.24-1.38-0.44c-0.45-0.19-0.87-0.43-1.27-0.71c-0.4-0.28-0.77-0.6-1.12-0.95c-0.34-0.36-0.65-0.74-0.92-1.16
					c-0.27-0.42-0.5-0.86-0.68-1.32c-0.19-0.46-0.32-0.94-0.42-1.44s-0.14-0.99-0.14-1.49v-22.98c0-0.5,0.05-1,0.14-1.49
					c0.09-0.49,0.23-0.97,0.42-1.44c0.18-0.46,0.41-0.91,0.68-1.32c0.27-0.42,0.57-0.81,0.92-1.16c0.34-0.36,0.71-0.67,1.12-0.95
					c0.4-0.28,0.83-0.52,1.27-0.71c0.45-0.19,0.91-0.34,1.38-0.44C897.26,620.3,897.74,620.25,898.23,620.25z"/>
				<path class="st112" d="M898.23,620.25h104.16c0.48,0,0.96,0.05,1.44,0.15c0.47,0.1,0.93,0.24,1.38,0.44s0.87,0.43,1.27,0.71
					c0.4,0.28,0.77,0.6,1.12,0.95c0.34,0.36,0.65,0.74,0.92,1.16c0.27,0.42,0.5,0.86,0.68,1.32c0.19,0.46,0.32,0.94,0.42,1.44
					s0.14,0.99,0.14,1.49v22.98c0,0.5-0.05,1-0.14,1.49s-0.23,0.97-0.42,1.44c-0.19,0.46-0.41,0.91-0.68,1.32
					c-0.27,0.42-0.57,0.81-0.92,1.16c-0.34,0.36-0.71,0.67-1.12,0.95c-0.4,0.28-0.83,0.52-1.27,0.71c-0.45,0.19-0.91,0.34-1.38,0.44
					c-0.47,0.1-0.95,0.15-1.44,0.15H898.23c-0.48,0-0.96-0.05-1.44-0.15c-0.47-0.1-0.93-0.24-1.38-0.44
					c-0.45-0.19-0.87-0.43-1.27-0.71c-0.4-0.28-0.77-0.6-1.12-0.95c-0.34-0.36-0.65-0.74-0.92-1.16c-0.27-0.42-0.5-0.86-0.68-1.32
					s-0.32-0.94-0.42-1.44c-0.09-0.49-0.14-0.99-0.14-1.49v-22.98c0-0.5,0.05-1,0.14-1.49c0.09-0.49,0.23-0.97,0.42-1.44
					s0.41-0.91,0.68-1.32c0.27-0.42,0.57-0.81,0.92-1.16c0.34-0.36,0.71-0.67,1.12-0.95c0.4-0.28,0.83-0.52,1.27-0.71
					c0.45-0.19,0.91-0.34,1.38-0.44C897.26,620.3,897.74,620.25,898.23,620.25z"/>
			</g>
		</g>
	</g>
	<g>
		<g>
			<g>
				<path class="st111" d="M135.3,122.35h196.97c1.12,0,2.2,0.19,3.24,0.56c1.04,0.37,1.95,0.91,2.74,1.6
					c0.79,0.69,1.4,1.49,1.83,2.39c0.43,0.9,0.64,1.84,0.64,2.82v22.08c0,0.98-0.21,1.92-0.64,2.82c-0.43,0.9-1.04,1.7-1.83,2.39
					c-0.79,0.69-1.71,1.22-2.74,1.6c-1.04,0.37-2.11,0.56-3.24,0.56H135.3c-1.12,0-2.2-0.19-3.24-0.56
					c-1.04-0.37-1.95-0.91-2.74-1.6c-0.79-0.69-1.4-1.49-1.83-2.39c-0.43-0.9-0.64-1.84-0.64-2.82v-22.08
					c0-0.98,0.21-1.92,0.64-2.82c0.43-0.9,1.04-1.7,1.83-2.39c0.79-0.69,1.71-1.22,2.74-1.6
					C133.1,122.54,134.18,122.35,135.3,122.35z"/>
				<path class="st112" d="M135.3,122.35h196.97c1.12,0,2.2,0.19,3.24,0.56c1.04,0.37,1.95,0.91,2.74,1.6
					c0.79,0.69,1.4,1.49,1.83,2.39c0.43,0.9,0.64,1.84,0.64,2.82v22.08c0,0.98-0.21,1.92-0.64,2.82c-0.43,0.9-1.04,1.7-1.83,2.39
					c-0.79,0.69-1.71,1.22-2.74,1.6c-1.04,0.37-2.11,0.56-3.24,0.56H135.3c-1.12,0-2.2-0.19-3.24-0.56
					c-1.04-0.37-1.95-0.91-2.74-1.6c-0.79-0.69-1.4-1.49-1.83-2.39c-0.43-0.9-0.64-1.84-0.64-2.82v-22.08
					c0-0.98,0.21-1.92,0.64-2.82c0.43-0.9,1.04-1.7,1.83-2.39c0.79-0.69,1.71-1.22,2.74-1.6S134.18,122.35,135.3,122.35z"/>
			</g>
		</g>
	</g>
	<g>
		<g>
			<g>
				<path class="st111" d="M135.28,174.39h196.57c1.12,0,2.2,0.19,3.23,0.56c1.03,0.37,1.95,0.91,2.74,1.6
					c0.79,0.69,1.4,1.49,1.83,2.39c0.43,0.9,0.64,1.84,0.64,2.82v22.08c0,0.98-0.21,1.92-0.64,2.82c-0.43,0.9-1.04,1.7-1.83,2.39
					c-0.79,0.69-1.7,1.22-2.74,1.6c-1.03,0.37-2.11,0.56-3.23,0.56H135.28c-1.12,0-2.2-0.19-3.23-0.56
					c-1.03-0.37-1.95-0.91-2.74-1.6c-0.79-0.69-1.4-1.49-1.83-2.39c-0.43-0.9-0.64-1.84-0.64-2.82v-22.08
					c0-0.98,0.21-1.92,0.64-2.82c0.43-0.9,1.04-1.7,1.83-2.39c0.79-0.69,1.7-1.22,2.74-1.6
					C133.09,174.58,134.16,174.39,135.28,174.39z"/>
				<path class="st112" d="M135.28,174.39h196.57c1.12,0,2.2,0.19,3.23,0.56c1.03,0.37,1.95,0.91,2.74,1.6
					c0.79,0.69,1.4,1.49,1.83,2.39c0.43,0.9,0.64,1.84,0.64,2.82v22.08c0,0.98-0.21,1.92-0.64,2.82c-0.43,0.9-1.04,1.7-1.83,2.39
					c-0.79,0.69-1.7,1.22-2.74,1.6c-1.03,0.37-2.11,0.56-3.23,0.56H135.28c-1.12,0-2.2-0.19-3.23-0.56
					c-1.03-0.37-1.95-0.91-2.74-1.6c-0.79-0.69-1.4-1.49-1.83-2.39c-0.43-0.9-0.64-1.84-0.64-2.82v-22.08
					c0-0.98,0.21-1.92,0.64-2.82c0.43-0.9,1.04-1.7,1.83-2.39c0.79-0.69,1.7-1.22,2.74-1.6
					C133.09,174.58,134.16,174.39,135.28,174.39z"/>
			</g>
		</g>
	</g>
	<g>
		<g>
			<g>
				<path class="st111" d="M137.29,230.89h243.36c1.39,0,2.72,0.19,4,0.56c1.28,0.37,2.41,0.91,3.39,1.6
					c0.98,0.69,1.73,1.49,2.27,2.39c0.53,0.9,0.8,1.84,0.8,2.82v22.08c0,0.98-0.27,1.92-0.8,2.82c-0.53,0.9-1.29,1.7-2.27,2.39
					c-0.98,0.69-2.11,1.22-3.39,1.6c-1.28,0.37-2.61,0.56-4,0.56H137.29c-1.39,0-2.72-0.19-4-0.56c-1.28-0.37-2.41-0.91-3.39-1.6
					c-0.98-0.69-1.73-1.49-2.27-2.39c-0.53-0.9-0.8-1.84-0.8-2.82v-22.08c0-0.98,0.27-1.92,0.8-2.82c0.53-0.9,1.29-1.7,2.27-2.39
					c0.98-0.69,2.11-1.22,3.39-1.6C134.57,231.07,135.91,230.89,137.29,230.89z"/>
				<path class="st112" d="M137.29,230.89h243.36c1.39,0,2.72,0.19,4,0.56c1.28,0.37,2.41,0.91,3.39,1.6
					c0.98,0.69,1.73,1.49,2.27,2.39c0.53,0.9,0.8,1.84,0.8,2.82v22.08c0,0.98-0.27,1.92-0.8,2.82c-0.53,0.9-1.29,1.7-2.27,2.39
					c-0.98,0.69-2.11,1.22-3.39,1.6c-1.28,0.37-2.61,0.56-4,0.56H137.29c-1.39,0-2.72-0.19-4-0.56c-1.28-0.37-2.41-0.91-3.39-1.6
					c-0.98-0.69-1.73-1.49-2.27-2.39c-0.53-0.9-0.8-1.84-0.8-2.82v-22.08c0-0.98,0.27-1.92,0.8-2.82c0.53-0.9,1.29-1.7,2.27-2.39
					c0.98-0.69,2.11-1.22,3.39-1.6C134.57,231.07,135.91,230.89,137.29,230.89z"/>
			</g>
		</g>
	</g>
	<g>
		<g>
			<g>
				<path class="st111" d="M133.13,352.93H273.9c0.78,0,1.53,0.17,2.25,0.52c0.72,0.35,1.36,0.84,1.91,1.48
					c0.55,0.64,0.98,1.38,1.28,2.22s0.45,1.71,0.45,2.61v20.49c0,0.91-0.15,1.78-0.45,2.61c-0.3,0.84-0.72,1.58-1.28,2.22
					c-0.55,0.64-1.19,1.13-1.91,1.48c-0.72,0.35-1.47,0.52-2.25,0.52H133.13c-0.78,0-1.53-0.17-2.25-0.52
					c-0.72-0.35-1.36-0.84-1.91-1.48c-0.55-0.64-0.98-1.38-1.28-2.22c-0.3-0.84-0.45-1.71-0.45-2.61v-20.49
					c0-0.91,0.15-1.78,0.45-2.61c0.3-0.84,0.72-1.58,1.28-2.22c0.55-0.64,1.19-1.13,1.91-1.48
					C131.6,353.1,132.35,352.93,133.13,352.93z"/>
				<path class="st112" d="M133.13,352.93H273.9c0.78,0,1.53,0.17,2.25,0.52c0.72,0.35,1.36,0.84,1.91,1.48
					c0.55,0.64,0.98,1.38,1.28,2.22c0.3,0.84,0.45,1.71,0.45,2.61v20.49c0,0.91-0.15,1.78-0.45,2.61c-0.3,0.84-0.72,1.58-1.28,2.22
					c-0.55,0.64-1.19,1.13-1.91,1.48s-1.47,0.52-2.25,0.52H133.13c-0.78,0-1.53-0.17-2.25-0.52s-1.36-0.84-1.91-1.48
					c-0.55-0.64-0.98-1.38-1.28-2.22s-0.45-1.71-0.45-2.61v-20.49c0-0.91,0.15-1.78,0.45-2.61s0.72-1.58,1.28-2.22
					c0.55-0.64,1.19-1.13,1.91-1.48C131.6,353.1,132.35,352.93,133.13,352.93z"/>
			</g>
		</g>
	</g>
	<g>
		<g>
			<g>
				<path class="st111" d="M136.02,397.06h210.05c1.16,0,2.28,0.17,3.36,0.52c1.08,0.35,2.02,0.84,2.85,1.48
					c0.82,0.64,1.46,1.38,1.9,2.22c0.45,0.84,0.67,1.71,0.67,2.61v20.49c0,0.91-0.22,1.78-0.67,2.61c-0.45,0.84-1.08,1.58-1.9,2.22
					c-0.82,0.64-1.77,1.13-2.85,1.48c-1.08,0.35-2.2,0.52-3.36,0.52H136.02c-1.16,0-2.28-0.17-3.36-0.52
					c-1.08-0.35-2.02-0.84-2.85-1.48c-0.82-0.64-1.46-1.38-1.9-2.22c-0.45-0.84-0.67-1.71-0.67-2.61v-20.49
					c0-0.91,0.22-1.78,0.67-2.61c0.45-0.84,1.08-1.58,1.9-2.22c0.82-0.64,1.77-1.13,2.85-1.48
					C133.74,397.23,134.86,397.06,136.02,397.06z"/>
				<path class="st112" d="M136.02,397.06h210.05c1.16,0,2.28,0.17,3.36,0.52c1.08,0.35,2.02,0.84,2.85,1.48
					c0.82,0.64,1.46,1.38,1.9,2.22s0.67,1.71,0.67,2.61v20.49c0,0.91-0.22,1.78-0.67,2.61c-0.45,0.84-1.08,1.58-1.9,2.22
					c-0.82,0.64-1.77,1.13-2.85,1.48c-1.08,0.35-2.2,0.52-3.36,0.52H136.02c-1.16,0-2.28-0.17-3.36-0.52
					c-1.08-0.35-2.02-0.84-2.85-1.48c-0.82-0.64-1.46-1.38-1.9-2.22c-0.45-0.84-0.67-1.71-0.67-2.61v-20.49
					c0-0.91,0.22-1.78,0.67-2.61s1.08-1.58,1.9-2.22c0.82-0.64,1.77-1.13,2.85-1.48C133.74,397.23,134.86,397.06,136.02,397.06z"/>
			</g>
		</g>
	</g>
	<g>
		<g>
			<g>
				<path class="st111" d="M137.12,449.47h236.2c1.31,0,2.57,0.17,3.78,0.52c1.21,0.35,2.28,0.84,3.2,1.48
					c0.93,0.64,1.64,1.38,2.14,2.22c0.5,0.84,0.75,1.71,0.75,2.61v20.49c0,0.91-0.25,1.78-0.75,2.61c-0.5,0.84-1.21,1.58-2.14,2.22
					c-0.93,0.64-1.99,1.13-3.2,1.48c-1.21,0.35-2.47,0.52-3.78,0.52h-236.2c-1.31,0-2.57-0.17-3.78-0.52
					c-1.21-0.35-2.28-0.84-3.2-1.48c-0.93-0.64-1.64-1.38-2.14-2.22c-0.5-0.84-0.75-1.71-0.75-2.61V456.3
					c0-0.91,0.25-1.78,0.75-2.61s1.21-1.58,2.14-2.22c0.93-0.64,1.99-1.13,3.2-1.48C134.55,449.64,135.81,449.47,137.12,449.47z"/>
				<path class="st112" d="M137.12,449.47h236.2c1.31,0,2.57,0.17,3.78,0.52c1.21,0.35,2.28,0.84,3.2,1.48
					c0.93,0.64,1.64,1.38,2.14,2.22s0.75,1.71,0.75,2.61v20.49c0,0.91-0.25,1.78-0.75,2.61c-0.5,0.84-1.21,1.58-2.14,2.22
					c-0.93,0.64-1.99,1.13-3.2,1.48c-1.21,0.35-2.47,0.52-3.78,0.52h-236.2c-1.31,0-2.57-0.17-3.78-0.52
					c-1.21-0.35-2.28-0.84-3.2-1.48c-0.93-0.64-1.64-1.38-2.14-2.22c-0.5-0.84-0.75-1.71-0.75-2.61V456.3
					c0-0.91,0.25-1.78,0.75-2.61c0.5-0.84,1.21-1.58,2.14-2.22c0.93-0.64,1.99-1.13,3.2-1.48
					C134.55,449.64,135.81,449.47,137.12,449.47z"/>
			</g>
		</g>
	</g>
	<g>
		<g>
			<g>
				<path class="st111" d="M136.36,502.01h240.01c1.21,0,2.37,0.17,3.49,0.52c1.12,0.35,2.1,0.84,2.96,1.48
					c0.85,0.64,1.51,1.38,1.98,2.22c0.46,0.84,0.69,1.71,0.69,2.61v20.49c0,0.91-0.23,1.78-0.69,2.61
					c-0.46,0.84-1.12,1.58-1.98,2.22c-0.85,0.64-1.84,1.13-2.96,1.48c-1.12,0.35-2.28,0.52-3.49,0.52H136.36
					c-1.21,0-2.37-0.17-3.49-0.52c-1.12-0.35-2.1-0.84-2.96-1.48c-0.85-0.64-1.51-1.38-1.98-2.22c-0.46-0.84-0.69-1.71-0.69-2.61
					v-20.49c0-0.91,0.23-1.78,0.69-2.61c0.46-0.84,1.12-1.58,1.98-2.22c0.85-0.64,1.84-1.13,2.96-1.48
					C133.99,502.18,135.15,502.01,136.36,502.01z"/>
				<path class="st112" d="M136.36,502.01h240.01c1.21,0,2.37,0.17,3.49,0.52c1.12,0.35,2.1,0.84,2.96,1.48
					c0.85,0.64,1.51,1.38,1.98,2.22c0.46,0.84,0.69,1.71,0.69,2.61v20.49c0,0.91-0.23,1.78-0.69,2.61
					c-0.46,0.84-1.12,1.58-1.98,2.22c-0.85,0.64-1.84,1.13-2.96,1.48c-1.12,0.35-2.28,0.52-3.49,0.52H136.36
					c-1.21,0-2.37-0.17-3.49-0.52c-1.12-0.35-2.1-0.84-2.96-1.48s-1.51-1.38-1.98-2.22c-0.46-0.84-0.69-1.71-0.69-2.61v-20.49
					c0-0.91,0.23-1.78,0.69-2.61c0.46-0.84,1.12-1.58,1.98-2.22c0.85-0.64,1.84-1.13,2.96-1.48
					C133.99,502.18,135.15,502.01,136.36,502.01z"/>
			</g>
		</g>
	</g>
	<g>
		<g>
			<g>
				<path class="st111" d="M137.93,612.34h138.57c0.71,0,1.41,0.08,2.1,0.24c0.69,0.16,1.37,0.4,2.02,0.71
					c0.65,0.31,1.28,0.7,1.86,1.16c0.59,0.46,1.13,0.98,1.63,1.56c0.5,0.58,0.95,1.22,1.34,1.9c0.39,0.68,0.73,1.41,1,2.17
					c0.27,0.76,0.48,1.54,0.61,2.35c0.14,0.81,0.21,1.62,0.21,2.45v37.6c0,0.82-0.07,1.64-0.21,2.45c-0.14,0.81-0.34,1.59-0.61,2.35
					c-0.27,0.76-0.6,1.48-1,2.17c-0.39,0.68-0.84,1.32-1.34,1.9c-0.5,0.58-1.05,1.1-1.63,1.56c-0.59,0.46-1.21,0.84-1.86,1.16
					c-0.65,0.32-1.33,0.55-2.02,0.71c-0.69,0.16-1.4,0.24-2.1,0.24H137.93c-0.71,0-1.41-0.08-2.1-0.24
					c-0.69-0.16-1.37-0.4-2.02-0.71c-0.65-0.31-1.28-0.7-1.86-1.16c-0.59-0.46-1.13-0.98-1.63-1.56c-0.5-0.58-0.95-1.22-1.34-1.9
					c-0.39-0.68-0.73-1.41-1-2.17c-0.27-0.76-0.48-1.54-0.61-2.35s-0.21-1.62-0.21-2.45v-37.6c0-0.82,0.07-1.64,0.21-2.45
					s0.34-1.59,0.61-2.35c0.27-0.76,0.6-1.48,1-2.17c0.39-0.68,0.84-1.32,1.34-1.9c0.5-0.58,1.05-1.1,1.63-1.56
					c0.59-0.46,1.21-0.84,1.86-1.16c0.65-0.32,1.33-0.55,2.02-0.71C136.52,612.42,137.22,612.34,137.93,612.34z"/>
				<path class="st112" d="M137.93,612.34h138.57c0.71,0,1.41,0.08,2.1,0.24c0.69,0.16,1.37,0.4,2.02,0.71
					c0.65,0.31,1.28,0.7,1.86,1.16c0.59,0.46,1.13,0.98,1.63,1.56c0.5,0.58,0.95,1.22,1.34,1.9c0.39,0.68,0.73,1.41,1,2.17
					c0.27,0.76,0.48,1.54,0.61,2.35s0.21,1.62,0.21,2.45v37.6c0,0.82-0.07,1.64-0.21,2.45s-0.34,1.59-0.61,2.35s-0.6,1.48-1,2.17
					c-0.39,0.68-0.84,1.32-1.34,1.9c-0.5,0.58-1.05,1.1-1.63,1.56c-0.59,0.46-1.21,0.84-1.86,1.16c-0.65,0.31-1.33,0.55-2.02,0.71
					c-0.69,0.16-1.4,0.24-2.1,0.24H137.93c-0.71,0-1.41-0.08-2.1-0.24c-0.69-0.16-1.37-0.4-2.02-0.71s-1.28-0.7-1.86-1.16
					c-0.59-0.46-1.13-0.98-1.63-1.56c-0.5-0.58-0.95-1.22-1.34-1.9s-0.73-1.41-1-2.17s-0.48-1.54-0.61-2.35s-0.21-1.62-0.21-2.45
					v-37.6c0-0.82,0.07-1.64,0.21-2.45s0.34-1.59,0.61-2.35c0.27-0.76,0.6-1.48,1-2.17c0.39-0.68,0.84-1.32,1.34-1.9
					c0.5-0.58,1.05-1.1,1.63-1.56c0.59-0.46,1.21-0.84,1.86-1.16s1.33-0.55,2.02-0.71C136.52,612.42,137.22,612.34,137.93,612.34z"
					/>
			</g>
		</g>
	</g>
	<g>
		<g>
			<g>
				<path class="st111" d="M134.4,682.84h207.92c0.96,0,1.89,0.22,2.77,0.66c0.89,0.44,1.67,1.06,2.35,1.88
					c0.68,0.81,1.2,1.75,1.57,2.81c0.37,1.06,0.55,2.16,0.55,3.31v25.97c0,1.15-0.18,2.25-0.55,3.31c-0.37,1.06-0.89,2-1.57,2.81
					c-0.68,0.81-1.46,1.44-2.35,1.88c-0.89,0.44-1.81,0.66-2.77,0.66H134.4c-0.96,0-1.89-0.22-2.78-0.66
					c-0.89-0.44-1.67-1.06-2.35-1.88c-0.68-0.81-1.2-1.75-1.57-2.81c-0.37-1.06-0.55-2.16-0.55-3.31V691.5
					c0-1.15,0.18-2.25,0.55-3.31c0.37-1.06,0.89-2,1.57-2.81c0.68-0.81,1.46-1.44,2.35-1.88
					C132.52,683.06,133.44,682.84,134.4,682.84z"/>
				<path class="st112" d="M134.4,682.84h207.92c0.96,0,1.89,0.22,2.78,0.66c0.89,0.44,1.67,1.06,2.35,1.88
					c0.68,0.81,1.2,1.75,1.57,2.81c0.37,1.06,0.55,2.16,0.55,3.31v25.97c0,1.15-0.18,2.25-0.55,3.31s-0.89,2-1.57,2.81
					c-0.68,0.81-1.46,1.44-2.35,1.88s-1.81,0.66-2.78,0.66H134.4c-0.96,0-1.89-0.22-2.78-0.66c-0.89-0.44-1.67-1.06-2.35-1.88
					c-0.68-0.81-1.2-1.75-1.57-2.81c-0.37-1.06-0.55-2.16-0.55-3.31V691.5c0-1.15,0.18-2.25,0.55-3.31c0.37-1.06,0.89-2,1.57-2.81
					c0.68-0.81,1.46-1.44,2.35-1.88C132.52,683.06,133.44,682.84,134.4,682.84z"/>
			</g>
		</g>
	</g>
	<path class="st113" d="M75.01,97.1v34.33c0,6.22,2.23,9.33,6.69,9.33h36.63"/>
	<polygon class="st114" points="116.2,134.46 126.84,140.77 116.2,147.07 	"/>
	<path class="st113" d="M75.01,109.5v76.63c0,4.46,2.23,6.68,6.69,6.68h36.63"/>
	<polygon class="st114" points="116.2,186.5 126.84,192.81 116.2,199.11 	"/>
	<path class="st113" d="M75.01,109.5v133.12c0,4.46,2.23,6.68,6.69,6.68h36.63"/>
	<polygon class="st114" points="116.2,243 126.84,249.3 116.2,255.61 	"/>
	<path class="st113" d="M75.42,340.4v22.92c0,4.46,2.23,6.68,6.69,6.68h36.63"/>
	<polygon class="st114" points="116.6,363.71 127.24,370.01 116.6,376.32 	"/>
	<path class="st113" d="M75.42,340.4v67.05c0,4.46,2.23,6.68,6.69,6.68h36.63"/>
	<polygon class="st114" points="116.6,407.83 127.24,414.14 116.6,420.44 	"/>
	<path class="st113" d="M75.42,340.4v119.47c0,4.46,2.23,6.68,6.69,6.68h36.63"/>
	<polygon class="st114" points="116.6,460.25 127.24,466.56 116.6,472.86 	"/>
	<path class="st113" d="M75.42,340.4v172c0,4.46,2.23,6.68,6.69,6.68h36.63"/>
	<polygon class="st114" points="116.6,512.79 127.24,519.09 116.6,525.39 	"/>
	<path class="st113" d="M74.91,600.81v36.18c0,4.46,1.91,6.68,5.72,6.68h37.61"/>
	<polygon class="st114" points="116.42,637.36 125.52,643.67 116.42,649.97 	"/>
	<path class="st113" d="M74.91,599.19v98.21c0,4.46,1.91,6.68,5.72,6.68h37.61"/>
	<polygon class="st114" points="116.42,697.78 125.52,704.09 116.42,710.39 	"/>
	<path class="st113" d="M74.91,662.34v93.17c0,2.77,1.91,4.15,5.72,4.15h37.61"/>
	<polygon class="st114" points="116.42,753.27 125.52,759.57 116.42,765.87 	"/>
	<path class="st113" d="M74.91,692.93v118.96c0,2.63,1.91,3.95,5.72,3.95h37.61"/>
	<polygon class="st114" points="116.42,809.35 125.52,815.65 116.42,821.96 	"/>
	<g>
		<g>
			<g>
				<path class="st111" d="M764.89,132.74h143.93c0.74,0,1.46,0.19,2.15,0.57c0.69,0.38,1.3,0.92,1.82,1.62
					c0.53,0.7,0.93,1.51,1.22,2.42c0.29,0.91,0.43,1.87,0.43,2.86v22.38c0,0.99-0.14,1.94-0.43,2.86c-0.28,0.91-0.69,1.72-1.22,2.42
					c-0.53,0.7-1.13,1.24-1.82,1.62c-0.69,0.38-1.4,0.57-2.15,0.57H764.89c-0.74,0-1.46-0.19-2.15-0.57
					c-0.69-0.38-1.3-0.92-1.82-1.62c-0.53-0.7-0.93-1.51-1.22-2.42c-0.29-0.91-0.43-1.87-0.43-2.86V140.2
					c0-0.99,0.14-1.94,0.43-2.86c0.28-0.91,0.69-1.72,1.22-2.42c0.53-0.7,1.13-1.24,1.82-1.62
					C763.43,132.93,764.15,132.74,764.89,132.74z"/>
				<path class="st112" d="M764.89,132.74h143.93c0.74,0,1.46,0.19,2.15,0.57c0.69,0.38,1.3,0.92,1.82,1.62
					c0.53,0.7,0.93,1.51,1.22,2.42c0.28,0.91,0.43,1.87,0.43,2.86v22.38c0,0.99-0.14,1.94-0.43,2.86c-0.28,0.91-0.69,1.72-1.22,2.42
					c-0.53,0.7-1.13,1.24-1.82,1.62c-0.69,0.38-1.4,0.57-2.15,0.57H764.89c-0.74,0-1.46-0.19-2.15-0.57
					c-0.69-0.38-1.3-0.92-1.82-1.62c-0.53-0.7-0.93-1.51-1.22-2.42c-0.28-0.91-0.43-1.87-0.43-2.86V140.2
					c0-0.99,0.14-1.94,0.43-2.86c0.28-0.91,0.69-1.72,1.22-2.42c0.53-0.7,1.13-1.24,1.82-1.62
					C763.43,132.93,764.15,132.74,764.89,132.74z"/>
			</g>
		</g>
	</g>
	<g>
		<g>
			<g>
				<path class="st111" d="M755.88,213.29h152.61c0.79,0,1.55,0.2,2.28,0.61c0.73,0.4,1.37,0.98,1.93,1.73
					c0.56,0.75,0.99,1.61,1.29,2.58c0.3,0.98,0.45,1.99,0.45,3.05v23.89c0,1.06-0.15,2.07-0.45,3.05c-0.3,0.98-0.73,1.84-1.29,2.58
					s-1.2,1.32-1.93,1.73c-0.73,0.4-1.49,0.61-2.28,0.61H755.88c-0.79,0-1.55-0.2-2.28-0.61c-0.73-0.4-1.37-0.98-1.93-1.73
					c-0.56-0.75-0.99-1.61-1.29-2.58c-0.3-0.98-0.45-1.99-0.45-3.05v-23.89c0-1.06,0.15-2.07,0.45-3.05
					c0.3-0.98,0.73-1.84,1.29-2.58c0.56-0.75,1.2-1.32,1.93-1.73C754.33,213.49,755.09,213.29,755.88,213.29z"/>
				<path class="st112" d="M755.88,213.29h152.61c0.79,0,1.55,0.2,2.28,0.61c0.73,0.4,1.37,0.98,1.93,1.73
					c0.56,0.75,0.99,1.61,1.29,2.58s0.45,1.99,0.45,3.05v23.89c0,1.06-0.15,2.07-0.45,3.05c-0.3,0.98-0.73,1.84-1.29,2.58
					s-1.2,1.32-1.93,1.73c-0.73,0.4-1.49,0.61-2.28,0.61H755.88c-0.79,0-1.55-0.2-2.28-0.61c-0.73-0.4-1.37-0.98-1.93-1.73
					c-0.56-0.75-0.99-1.61-1.29-2.58c-0.3-0.98-0.45-1.99-0.45-3.05v-23.89c0-1.06,0.15-2.07,0.45-3.05s0.73-1.84,1.29-2.58
					c0.56-0.75,1.2-1.32,1.93-1.73C754.33,213.49,755.09,213.29,755.88,213.29z"/>
			</g>
		</g>
	</g>
	<g>
		<g>
			<g>
				<path class="st111" d="M781.25,301.44h123.99c0.6,0,1.2,0.08,1.79,0.24c0.59,0.16,1.17,0.39,1.73,0.7
					c0.56,0.31,1.09,0.69,1.59,1.14c0.5,0.45,0.97,0.96,1.39,1.53s0.81,1.19,1.14,1.87c0.34,0.67,0.62,1.38,0.85,2.13
					c0.23,0.75,0.41,1.52,0.52,2.31c0.12,0.79,0.18,1.6,0.18,2.4v36.98c0,0.81-0.06,1.61-0.18,2.4c-0.12,0.79-0.29,1.56-0.52,2.31
					c-0.23,0.75-0.51,1.46-0.85,2.13c-0.34,0.67-0.72,1.3-1.14,1.87s-0.89,1.08-1.39,1.53c-0.5,0.45-1.03,0.83-1.59,1.14
					c-0.56,0.31-1.13,0.54-1.73,0.7s-1.19,0.24-1.79,0.24H781.25c-0.6,0-1.2-0.08-1.79-0.24c-0.59-0.16-1.17-0.39-1.73-0.7
					c-0.56-0.31-1.09-0.69-1.59-1.14c-0.5-0.45-0.97-0.96-1.39-1.53s-0.81-1.19-1.14-1.87c-0.34-0.67-0.62-1.38-0.85-2.13
					c-0.23-0.75-0.41-1.52-0.52-2.31c-0.12-0.79-0.18-1.6-0.18-2.4v-36.98c0-0.81,0.06-1.61,0.18-2.4c0.12-0.79,0.29-1.56,0.52-2.31
					c0.23-0.75,0.51-1.46,0.85-2.13c0.34-0.67,0.72-1.3,1.14-1.87s0.89-1.08,1.39-1.53c0.5-0.45,1.03-0.83,1.59-1.14
					c0.56-0.31,1.13-0.54,1.73-0.7C780.05,301.52,780.65,301.44,781.25,301.44z"/>
				<path class="st112" d="M781.25,301.44h123.99c0.6,0,1.2,0.08,1.79,0.24c0.59,0.16,1.17,0.39,1.73,0.7
					c0.56,0.31,1.09,0.69,1.59,1.14c0.5,0.45,0.97,0.96,1.39,1.53c0.43,0.57,0.81,1.19,1.14,1.87c0.34,0.67,0.62,1.38,0.85,2.13
					c0.23,0.75,0.41,1.52,0.52,2.31c0.12,0.79,0.18,1.6,0.18,2.4v36.98c0,0.81-0.06,1.61-0.18,2.4c-0.12,0.79-0.29,1.56-0.52,2.31
					c-0.23,0.75-0.51,1.46-0.85,2.13s-0.72,1.3-1.14,1.87c-0.43,0.57-0.89,1.08-1.39,1.53c-0.5,0.45-1.03,0.83-1.59,1.14
					c-0.56,0.31-1.13,0.54-1.73,0.7c-0.59,0.16-1.19,0.24-1.79,0.24H781.25c-0.6,0-1.2-0.08-1.79-0.24
					c-0.59-0.16-1.17-0.39-1.73-0.7c-0.56-0.31-1.09-0.69-1.59-1.14c-0.5-0.45-0.97-0.96-1.39-1.53s-0.81-1.19-1.14-1.87
					c-0.34-0.67-0.62-1.38-0.85-2.13c-0.23-0.75-0.41-1.52-0.52-2.31c-0.12-0.79-0.18-1.6-0.18-2.4v-36.98
					c0-0.81,0.06-1.61,0.18-2.4c0.12-0.79,0.29-1.56,0.52-2.31c0.23-0.75,0.51-1.46,0.85-2.13c0.34-0.67,0.72-1.3,1.14-1.87
					s0.89-1.08,1.39-1.53c0.5-0.45,1.03-0.83,1.59-1.14c0.56-0.31,1.13-0.54,1.73-0.7C780.05,301.52,780.65,301.44,781.25,301.44z"
					/>
			</g>
		</g>
	</g>
	<path class="st113" d="M966.13,95.55v46.26c0,5.86-2.23,8.79-6.69,8.79h-36.5"/>
	<polygon class="st114" points="925.07,158.89 914.43,150.6 925.07,142.31 	"/>
	<path class="st113" d="M966.13,126.95v98.42c0,5.05-2.23,7.57-6.69,7.57h-36.5"/>
	<polygon class="st114" points="925.07,240.08 914.43,232.94 925.07,225.8 	"/>
	<path class="st113" d="M966.13,177.5v151.29c0,4.46-2.23,6.68-6.69,6.68h-36.5"/>
	<polygon class="st114" points="925.07,341.78 914.43,335.48 925.07,329.17 	"/>
	<g>
		<g>
			<g>
				<path class="st111" d="M786.09,485.95h118.48c0.83,0,1.64,0.17,2.41,0.52c0.77,0.35,1.45,0.84,2.04,1.48
					c0.59,0.64,1.04,1.38,1.36,2.21c0.32,0.84,0.48,1.71,0.48,2.61v20.47c0,0.9-0.16,1.78-0.48,2.61c-0.32,0.84-0.77,1.57-1.36,2.21
					c-0.59,0.64-1.27,1.13-2.04,1.48c-0.77,0.35-1.57,0.52-2.41,0.52H786.09c-0.83,0-1.64-0.17-2.41-0.52s-1.45-0.84-2.04-1.48
					c-0.59-0.64-1.04-1.38-1.36-2.21c-0.32-0.84-0.48-1.71-0.48-2.61v-20.47c0-0.9,0.16-1.78,0.48-2.61s0.77-1.57,1.36-2.21
					c0.59-0.64,1.27-1.13,2.04-1.48S785.26,485.95,786.09,485.95z"/>
				<path class="st112" d="M786.09,485.95h118.48c0.83,0,1.64,0.17,2.41,0.52c0.77,0.35,1.45,0.84,2.04,1.48
					c0.59,0.64,1.04,1.38,1.36,2.21s0.48,1.71,0.48,2.61v20.47c0,0.9-0.16,1.78-0.48,2.61c-0.32,0.84-0.77,1.57-1.36,2.21
					c-0.59,0.64-1.27,1.13-2.04,1.48c-0.77,0.35-1.57,0.52-2.41,0.52H786.09c-0.83,0-1.64-0.17-2.41-0.52s-1.45-0.84-2.04-1.48
					c-0.59-0.64-1.04-1.38-1.36-2.21c-0.32-0.84-0.48-1.71-0.48-2.61v-20.47c0-0.91,0.16-1.78,0.48-2.61s0.77-1.57,1.36-2.21
					c0.59-0.64,1.27-1.13,2.04-1.48C784.45,486.13,785.26,485.95,786.09,485.95z"/>
			</g>
		</g>
	</g>
	<path class="st113" d="M966.08,473.19v24.47c0,3.92-2.38,5.88-7.15,5.88h-39.05"/>
	<polygon class="st114" points="922.01,509.84 911.37,503.54 922.01,497.24 	"/>
	<path class="st113" d="M966.08,462.64v86.84c0,4.24-2.38,6.36-7.15,6.36h-39.05"/>
	<polygon class="st114" points="922.01,562.14 911.37,555.84 922.01,549.54 	"/>
	<path class="st113" d="M340.3,142.46c68.71,0,33.88-38.9,102.6-38.9"/>
	<polygon class="st114" points="441.29,97.26 449.31,103.56 441.29,109.86 	"/>
	<path class="st113" d="M340.6,192.85c74.53,0,27.76-89.29,102.29-89.29"/>
	<polygon class="st114" points="441.29,97.26 449.31,103.56 441.29,109.86 	"/>
	<path class="st113" d="M391.36,249.36c53.38,0-1.84-145.8,51.53-145.8"/>
	<polygon class="st114" points="441.29,97.26 449.31,103.56 441.29,109.86 	"/>
	<path class="st113" d="M382.93,466.55c25.46,0,34.5-84.02,59.96-84.02"/>
	<polygon class="st114" points="442.95,376.1 450.98,382.41 442.95,388.71 	"/>
	<path class="st113" d="M385.74,519.09c27.75,0,29.4-136.56,57.16-136.56"/>
	<path class="st113" d="M382.93,466.55c23.43,0,37.15,8.42,60.58,8.42"/>
	<polygon class="st114" points="443.14,468.54 451.17,474.85 443.14,481.15 	"/>
	<path class="st113" d="M385.74,519.09c22.8,0,34.97-44.12,57.77-44.12"/>
	<path class="st113" d="M287.8,643.66c35.2,0,105.23-59.59,140.43-59.59"/>
	<polygon class="st114" points="427.99,577.77 436.01,584.07 427.99,590.38 	"/>
	<path class="st113" d="M287.29,643.67c37.57,0,118.04,49.18,155.61,49.18"/>
	<polygon class="st114" points="443.01,686.55 451.03,692.85 443.01,699.15 	"/>
	<path class="st113" d="M889.84,640.3c-116.57,0-158.85,144.21-275.42,144.21"/>
	<path class="st113" d="M780.31,556.97c-85.94,0-58.31-175.19-164.18-175.19"/>
	<path class="st113" d="M779.03,503.12c-71.32,0-65.55-121.33-162.91-121.33"/>
	<polygon class="st114" points="617.07,388.84 606.43,382.53 617.07,376.23 	"/>
	<path class="st113" d="M347.65,760.85c39.4,0,55.09-68.01,94.48-68.01"/>
	<path class="st113" d="M347.7,813.96c43.98,0,51.22-121.12,95.2-121.12"/>
	<path class="st113" d="M340.6,192.85c75.74,0,53.06,96.87,102.29,96.87"/>
	<polygon class="st114" points="441.29,283.42 449.31,289.72 441.29,296.02 	"/>
	<path class="st113" d="M340.3,142.46c71.03,0,31.57,61.01,102.6,61.01"/>
	<polygon class="st114" points="441.29,197.17 449.31,203.47 441.29,209.78 	"/>
	<path class="st113" d="M750.27,233.94c-97.13,0-53.8,349.87-123.08,349.87"/>
	<path class="st113" d="M758.51,153.53c-170.33,0-48.77,430.3-131.32,430.3"/>
	<path class="st113" d="M771.71,336.37c-103.15,0-85.46,247.45-144.52,247.45"/>
	<polygon class="st114" points="632.27,590.38 621.64,584.07 632.27,577.77 	"/>
	<path class="st113" d="M770.69,336.36c-99.74,0-21.45-232.8-155.59-232.8"/>
	<polygon class="st114" points="616.05,109.86 605.41,103.56 616.05,97.26 	"/>
	<path class="st113" d="M349.92,705.7c42.04,0,49.08-12.5,91.12-12.5"/>
	<path class="st113" d="M349.14,705.96c73.56,0,36.26-230.98,93.67-230.98"/>
	<path class="st113" d="M779.29,503.12c-74.63,0-90.23,281.38-164.86,281.38"/>
	<polygon class="st114" points="616.39,790.54 605.75,784.23 616.39,777.93 	"/>
	<rect x="40.81" y="60.85" class="st143" width="190.06" height="26.81"/>
	<text transform="matrix(1 0 0 1 40.8068 77.4989)" class="st144 st145 st146">1. Project organization</text>
	<rect x="40.81" y="297.27" class="st143" width="186.23" height="26.81"/>
	<text transform="matrix(1 0 0 1 40.8068 313.9246)" class="st144 st145 st146">2. Project description</text>
	<rect x="40.81" y="562.29" class="st143" width="227.59" height="26.81"/>
	<text transform="matrix(1 0 0 1 40.8068 578.9457)" class="st144 st145 st146">3. Reproducible modelling</text>
	<rect x="134.81" y="130.56" class="st143" width="216.53" height="26.81"/>
	<text transform="matrix(1 0 0 1 134.8117 147.2178)" class="st144 st147 st146">1.1 Folder structure</text>
	<rect x="134.81" y="181.88" class="st143" width="197.89" height="26.81"/>
	<text transform="matrix(1 0 0 1 134.8117 198.5369)" class="st144 st147 st146">1.2 Version control</text>
	<rect x="134.81" y="238.56" class="st143" width="252.27" height="26.81"/>
	<text transform="matrix(1 0 0 1 134.8117 255.2177)" class="st144 st147 st146">1.3 Naming conventions</text>
	<rect x="134.81" y="358.82" class="st143" width="136.55" height="26.81"/>
	<text transform="matrix(1 0 0 1 134.8117 375.4729)" class="st144 st147 st146">2.1 Purpose</text>
	<rect x="134.81" y="403.25" class="st143" width="218.51" height="26.81"/>
	<text transform="matrix(1 0 0 1 134.8117 419.8985)" class="st144 st147 st146">2.2 Inputs’ metadata</text>
	<rect x="134.81" y="454.56" class="st143" width="246.08" height="26.81"/>
	<text transform="matrix(1 0 0 1 134.8117 471.2177)" class="st144 st147 st146">2.3 LCI model overview</text>
	<rect x="134.81" y="508.95" class="st143" width="246.08" height="26.81"/>
	<text transform="matrix(1 0 0 1 134.8117 525.6005)" class="st144 st147 st146">2.3 Submodels overview</text>
	<rect x="134.05" y="621.54" class="st143" width="133.33" height="62.79"/>
	<text transform="matrix(1 0 0 1 134.0463 638.1963)"><tspan x="0" y="0" class="st144 st147 st146">3.1 Computational </tspan><tspan x="0" y="26.4" class="st144 st147 st146">environments</tspan></text>
	<rect x="134.05" y="694.05" class="st143" width="198.59" height="62.79"/>
	<text transform="matrix(1 0 0 1 134.0458 710.707)" class="st144 st147 st146">3.2 Computational workflow</text>
	<rect x="134.05" y="750.22" class="st143" width="198.59" height="25.18"/>
	<text transform="matrix(1 0 0 1 134.0463 766.8771)" class="st144 st147 st146">3.3 LCI building scripts</text>
	<g>
		<g>
			<g>
				<path class="st111" d="M135.17,792.51h204.77c1.06,0,2.09,0.21,3.07,0.64c0.98,0.43,1.85,1.03,2.6,1.82
					c0.75,0.79,1.33,1.69,1.74,2.72c0.41,1.03,0.61,2.1,0.61,3.21v25.19c0,1.11-0.2,2.18-0.61,3.21c-0.41,1.03-0.99,1.94-1.74,2.72
					c-0.75,0.79-1.62,1.39-2.6,1.82c-0.98,0.43-2.01,0.64-3.07,0.64H135.17c-1.06,0-2.09-0.21-3.07-0.64
					c-0.98-0.43-1.85-1.03-2.6-1.82c-0.75-0.79-1.33-1.7-1.74-2.72c-0.41-1.03-0.61-2.1-0.61-3.21v-25.19c0-1.11,0.2-2.18,0.61-3.21
					c0.41-1.03,0.99-1.94,1.74-2.72c0.75-0.79,1.62-1.39,2.6-1.82C133.08,792.72,134.11,792.51,135.17,792.51z"/>
				<path class="st112" d="M135.17,792.51h204.77c1.06,0,2.09,0.21,3.07,0.64c0.98,0.43,1.85,1.03,2.6,1.82
					c0.75,0.79,1.33,1.7,1.74,2.72c0.41,1.03,0.61,2.1,0.61,3.21v25.19c0,1.11-0.2,2.18-0.61,3.21c-0.41,1.03-0.99,1.94-1.74,2.72
					c-0.75,0.79-1.62,1.39-2.6,1.82c-0.98,0.43-2.01,0.64-3.07,0.64H135.17c-1.06,0-2.09-0.21-3.07-0.64s-1.85-1.03-2.6-1.82
					c-0.75-0.79-1.33-1.7-1.74-2.72c-0.41-1.03-0.61-2.1-0.61-3.21v-25.19c0-1.11,0.2-2.18,0.61-3.21c0.41-1.03,0.99-1.94,1.74-2.72
					c0.75-0.79,1.62-1.39,2.6-1.82C133.08,792.72,134.11,792.51,135.17,792.51z"/>
			</g>
		</g>
	</g>
	<rect x="134.05" y="803.59" class="st143" width="198.59" height="62.79"/>
	<text transform="matrix(1 0 0 1 134.0458 820.2388)" class="st144 st147 st146">3.4 Submodels scripts</text>
	<rect x="809.16" y="61.88" class="st143" width="183.48" height="26.81"/>
	<text transform="matrix(1 0 0 1 828.5386 78.5353)" class="st144 st145 st146">4. Reproducible analysis</text>
	<rect x="817.33" y="431.46" class="st143" width="180.54" height="23.01"/>
	<text transform="matrix(1 0 0 1 834.2347 448.1098)" class="st144 st145 st146">5. Code style and linting</text>
	<rect x="902.61" y="629.07" class="st143" width="95.77" height="21.48"/>
	<text transform="matrix(1 0 0 1 918.5988 645.7267)" class="st144 st145 st146">6. Licensing</text>
	<rect x="757.74" y="141.29" class="st143" width="147.83" height="21.86"/>
	<text transform="matrix(1 0 0 1 771.1984 157.9397)" class="st144 st147 st146">4.1 Analysis workflow</text>
	<rect x="754.35" y="223.23" class="st143" width="152.75" height="23.91"/>
	<text transform="matrix(1 0 0 1 760.678 239.8871)" class="st144 st147 st146">4.2 Visualization scripts</text>
	<rect x="770.35" y="308.27" class="st143" width="137.52" height="64.33"/>
	<text transform="matrix(1 0 0 1 790.415 324.9184)"><tspan x="0" y="0" class="st144 st147 st146">4.3 Notebooks and </tspan><tspan x="25.23" y="26.4" class="st144 st147 st146">interactive files</tspan></text>
	<rect x="794.73" y="492.09" class="st143" width="111.6" height="22.7"/>
	<text transform="matrix(1 0 0 1 804.8137 508.7481)" class="st144 st147 st146">5.1 Code quality</text>
	<g>
		<g>
			<g>
				<path class="st111" d="M786.82,538.55h117.79c0.83,0,1.63,0.17,2.39,0.52c0.77,0.35,1.44,0.84,2.03,1.48
					c0.59,0.64,1.04,1.38,1.36,2.21c0.32,0.84,0.48,1.71,0.48,2.61v20.47c0,0.91-0.16,1.78-0.48,2.61
					c-0.32,0.84-0.77,1.57-1.36,2.21c-0.59,0.64-1.26,1.13-2.03,1.48c-0.77,0.35-1.56,0.52-2.39,0.52H786.82
					c-0.83,0-1.63-0.17-2.39-0.52c-0.77-0.35-1.44-0.84-2.03-1.48c-0.59-0.64-1.04-1.38-1.36-2.21c-0.32-0.84-0.48-1.71-0.48-2.61
					v-20.47c0-0.9,0.16-1.78,0.48-2.61c0.32-0.84,0.77-1.57,1.36-2.21c0.59-0.64,1.26-1.13,2.03-1.48S785.99,538.55,786.82,538.55z"
					/>
				<path class="st112" d="M786.82,538.55h117.79c0.83,0,1.63,0.17,2.39,0.52c0.77,0.35,1.44,0.84,2.03,1.48
					c0.59,0.64,1.04,1.38,1.36,2.21c0.32,0.84,0.48,1.71,0.48,2.61v20.47c0,0.9-0.16,1.78-0.48,2.61c-0.32,0.84-0.77,1.57-1.36,2.21
					c-0.59,0.64-1.26,1.13-2.03,1.48c-0.77,0.35-1.56,0.52-2.39,0.52H786.82c-0.83,0-1.63-0.17-2.39-0.52s-1.44-0.84-2.03-1.48
					c-0.59-0.64-1.04-1.38-1.36-2.21c-0.32-0.84-0.48-1.71-0.48-2.61v-20.47c0-0.91,0.16-1.78,0.48-2.61
					c0.32-0.84,0.77-1.57,1.36-2.21c0.59-0.64,1.26-1.13,2.03-1.48S785.99,538.55,786.82,538.55z"/>
			</g>
		</g>
	</g>
	<rect x="787.97" y="544.95" class="st143" width="118.37" height="22.7"/>
	<text transform="matrix(1 0 0 1 805.7805 561.5991)" class="st144 st147 st146">5.2 Code testing</text>
	<g>
		<g>
			<g>
				<path class="st115" d="M463.16,73.44h131.48c0.78,0,1.56,0.08,2.32,0.23c0.77,0.15,1.51,0.38,2.23,0.68
					c0.72,0.3,1.41,0.67,2.06,1.1c0.65,0.43,1.25,0.93,1.8,1.48c0.55,0.55,1.05,1.15,1.48,1.8c0.43,0.65,0.8,1.34,1.1,2.06
					c0.3,0.72,0.52,1.47,0.68,2.23c0.15,0.77,0.23,1.54,0.23,2.32v35.69c0,0.78-0.08,1.55-0.23,2.32c-0.15,0.77-0.38,1.51-0.68,2.23
					c-0.3,0.72-0.67,1.41-1.1,2.06c-0.43,0.65-0.93,1.25-1.48,1.8c-0.55,0.55-1.15,1.05-1.8,1.48c-0.65,0.43-1.34,0.8-2.06,1.1
					c-0.72,0.3-1.47,0.52-2.23,0.68c-0.77,0.15-1.54,0.23-2.32,0.23H463.16c-0.78,0-1.56-0.08-2.32-0.23
					c-0.77-0.15-1.51-0.38-2.23-0.68c-0.72-0.3-1.41-0.67-2.06-1.1c-0.65-0.43-1.25-0.93-1.8-1.48c-0.55-0.55-1.05-1.15-1.48-1.8
					c-0.43-0.65-0.8-1.34-1.1-2.06c-0.3-0.72-0.52-1.47-0.68-2.23c-0.15-0.77-0.23-1.54-0.23-2.32V85.34c0-0.78,0.08-1.55,0.23-2.32
					c0.15-0.77,0.38-1.51,0.68-2.23c0.3-0.72,0.67-1.41,1.1-2.06c0.43-0.65,0.93-1.25,1.48-1.8c0.55-0.55,1.15-1.05,1.8-1.48
					c0.65-0.43,1.34-0.8,2.06-1.1c0.72-0.3,1.47-0.52,2.23-0.68C461.6,73.52,462.38,73.44,463.16,73.44z"/>
				<path class="st116" d="M463.16,73.44h131.48c0.78,0,1.56,0.08,2.32,0.23s1.51,0.38,2.23,0.68c0.72,0.3,1.41,0.67,2.06,1.1
					c0.65,0.43,1.25,0.93,1.8,1.48c0.55,0.55,1.05,1.15,1.48,1.8c0.43,0.65,0.8,1.34,1.1,2.06c0.3,0.72,0.52,1.47,0.68,2.23
					s0.23,1.54,0.23,2.32v35.69c0,0.78-0.08,1.55-0.23,2.32s-0.38,1.51-0.68,2.23c-0.3,0.72-0.67,1.41-1.1,2.06
					c-0.43,0.65-0.93,1.25-1.48,1.8c-0.55,0.55-1.15,1.05-1.8,1.48c-0.65,0.43-1.34,0.8-2.06,1.1c-0.72,0.3-1.47,0.52-2.23,0.68
					c-0.77,0.15-1.54,0.23-2.32,0.23H463.16c-0.78,0-1.56-0.08-2.32-0.23s-1.51-0.38-2.23-0.68c-0.72-0.3-1.41-0.67-2.06-1.1
					c-0.65-0.43-1.25-0.93-1.8-1.48c-0.55-0.55-1.05-1.15-1.48-1.8c-0.43-0.65-0.8-1.34-1.1-2.06c-0.3-0.72-0.52-1.47-0.68-2.23
					s-0.23-1.54-0.23-2.32V85.34c0-0.78,0.08-1.55,0.23-2.32s0.38-1.51,0.68-2.23c0.3-0.72,0.67-1.41,1.1-2.06
					c0.43-0.65,0.93-1.25,1.48-1.8c0.55-0.55,1.15-1.05,1.8-1.48c0.65-0.43,1.34-0.8,2.06-1.1c0.72-0.3,1.47-0.52,2.23-0.68
					S462.38,73.44,463.16,73.44z"/>
			</g>
		</g>
	</g>
	<g>
		<g>
			<g>
				<path class="st115" d="M463.16,173.36h131.48c0.78,0,1.56,0.08,2.32,0.23c0.77,0.15,1.51,0.38,2.23,0.68
					c0.72,0.3,1.41,0.67,2.06,1.1c0.65,0.43,1.25,0.93,1.8,1.48c0.55,0.55,1.05,1.15,1.48,1.8c0.43,0.65,0.8,1.34,1.1,2.06
					c0.3,0.72,0.52,1.47,0.68,2.23c0.15,0.77,0.23,1.54,0.23,2.32v35.69c0,0.78-0.08,1.55-0.23,2.32c-0.15,0.77-0.38,1.51-0.68,2.23
					c-0.3,0.72-0.67,1.41-1.1,2.06c-0.43,0.65-0.93,1.25-1.48,1.8c-0.55,0.55-1.15,1.05-1.8,1.48c-0.65,0.43-1.34,0.8-2.06,1.1
					c-0.72,0.3-1.47,0.52-2.23,0.68c-0.77,0.15-1.54,0.23-2.32,0.23H463.16c-0.78,0-1.56-0.08-2.32-0.23
					c-0.77-0.15-1.51-0.38-2.23-0.68c-0.72-0.3-1.41-0.67-2.06-1.1c-0.65-0.43-1.25-0.93-1.8-1.48c-0.55-0.55-1.05-1.15-1.48-1.8
					c-0.43-0.65-0.8-1.34-1.1-2.06c-0.3-0.72-0.52-1.47-0.68-2.23c-0.15-0.77-0.23-1.54-0.23-2.32v-35.69
					c0-0.78,0.08-1.55,0.23-2.32c0.15-0.77,0.38-1.51,0.68-2.23c0.3-0.72,0.67-1.41,1.1-2.06c0.43-0.65,0.93-1.25,1.48-1.8
					c0.55-0.55,1.15-1.05,1.8-1.48c0.65-0.43,1.34-0.8,2.06-1.1c0.72-0.3,1.47-0.52,2.23-0.68
					C461.6,173.44,462.38,173.36,463.16,173.36z"/>
				<path class="st116" d="M463.16,173.36h131.48c0.78,0,1.56,0.08,2.32,0.23c0.77,0.15,1.51,0.38,2.23,0.68
					c0.72,0.3,1.41,0.67,2.06,1.1c0.65,0.43,1.25,0.93,1.8,1.48c0.55,0.55,1.05,1.15,1.48,1.8c0.43,0.65,0.8,1.34,1.1,2.06
					c0.3,0.72,0.52,1.47,0.68,2.23s0.23,1.54,0.23,2.32v35.69c0,0.78-0.08,1.55-0.23,2.32s-0.38,1.51-0.68,2.23
					c-0.3,0.72-0.67,1.41-1.1,2.06c-0.43,0.65-0.93,1.25-1.48,1.8c-0.55,0.55-1.15,1.05-1.8,1.48c-0.65,0.43-1.34,0.8-2.06,1.1
					c-0.72,0.3-1.47,0.52-2.23,0.68c-0.77,0.15-1.54,0.23-2.32,0.23H463.16c-0.78,0-1.56-0.08-2.32-0.23s-1.51-0.38-2.23-0.68
					c-0.72-0.3-1.41-0.67-2.06-1.1c-0.65-0.43-1.25-0.93-1.8-1.48c-0.55-0.55-1.05-1.15-1.48-1.8c-0.43-0.65-0.8-1.34-1.1-2.06
					c-0.3-0.72-0.52-1.47-0.68-2.23s-0.23-1.54-0.23-2.32v-35.69c0-0.78,0.08-1.55,0.23-2.32s0.38-1.51,0.68-2.23
					c0.3-0.72,0.67-1.41,1.1-2.06c0.43-0.65,0.93-1.25,1.48-1.8c0.55-0.55,1.15-1.05,1.8-1.48c0.65-0.43,1.34-0.8,2.06-1.1
					c0.72-0.3,1.47-0.52,2.23-0.68C461.6,173.44,462.38,173.36,463.16,173.36z"/>
			</g>
		</g>
	</g>
	<g>
		<g>
			<g>
				<path class="st115" d="M463.16,444.86h131.48c0.78,0,1.56,0.08,2.32,0.23c0.77,0.15,1.51,0.38,2.23,0.68
					c0.72,0.3,1.41,0.67,2.06,1.1c0.65,0.43,1.25,0.93,1.8,1.48c0.55,0.55,1.05,1.15,1.48,1.8c0.43,0.65,0.8,1.34,1.1,2.06
					c0.3,0.72,0.52,1.47,0.68,2.23c0.15,0.77,0.23,1.54,0.23,2.32v35.69c0,0.78-0.08,1.55-0.23,2.32c-0.15,0.77-0.38,1.51-0.68,2.23
					c-0.3,0.72-0.67,1.41-1.1,2.06c-0.43,0.65-0.93,1.25-1.48,1.8c-0.55,0.55-1.15,1.05-1.8,1.48c-0.65,0.43-1.34,0.8-2.06,1.1
					c-0.72,0.3-1.47,0.52-2.23,0.68c-0.77,0.15-1.54,0.23-2.32,0.23H463.16c-0.78,0-1.56-0.08-2.32-0.23
					c-0.77-0.15-1.51-0.38-2.23-0.68c-0.72-0.3-1.41-0.67-2.06-1.1c-0.65-0.43-1.25-0.93-1.8-1.48c-0.55-0.55-1.05-1.15-1.48-1.8
					c-0.43-0.65-0.8-1.34-1.1-2.06c-0.3-0.72-0.52-1.47-0.68-2.23c-0.15-0.77-0.23-1.54-0.23-2.32v-35.69
					c0-0.78,0.08-1.55,0.23-2.32c0.15-0.77,0.38-1.51,0.68-2.23c0.3-0.72,0.67-1.41,1.1-2.06c0.43-0.65,0.93-1.25,1.48-1.8
					c0.55-0.55,1.15-1.05,1.8-1.48c0.65-0.43,1.34-0.8,2.06-1.1c0.72-0.3,1.47-0.52,2.23-0.68
					C461.6,444.93,462.38,444.86,463.16,444.86z"/>
				<path class="st116" d="M463.16,444.86h131.48c0.78,0,1.56,0.08,2.32,0.23c0.77,0.15,1.51,0.38,2.23,0.68
					c0.72,0.3,1.41,0.67,2.06,1.1c0.65,0.43,1.25,0.93,1.8,1.48c0.55,0.55,1.05,1.15,1.48,1.8c0.43,0.65,0.8,1.34,1.1,2.06
					c0.3,0.72,0.52,1.47,0.68,2.23c0.15,0.77,0.23,1.54,0.23,2.32v35.69c0,0.78-0.08,1.55-0.23,2.32s-0.38,1.51-0.68,2.23
					c-0.3,0.72-0.67,1.41-1.1,2.06c-0.43,0.65-0.93,1.25-1.48,1.8c-0.55,0.55-1.15,1.05-1.8,1.48c-0.65,0.43-1.34,0.8-2.06,1.1
					c-0.72,0.3-1.47,0.52-2.23,0.68c-0.77,0.15-1.54,0.23-2.32,0.23H463.16c-0.78,0-1.56-0.08-2.32-0.23s-1.51-0.38-2.23-0.68
					c-0.72-0.3-1.41-0.67-2.06-1.1c-0.65-0.43-1.25-0.93-1.8-1.48c-0.55-0.55-1.05-1.15-1.48-1.8c-0.43-0.65-0.8-1.34-1.1-2.06
					c-0.3-0.72-0.52-1.47-0.68-2.23s-0.23-1.54-0.23-2.32v-35.69c0-0.78,0.08-1.55,0.23-2.32c0.15-0.77,0.38-1.51,0.68-2.23
					c0.3-0.72,0.67-1.41,1.1-2.06c0.43-0.65,0.93-1.25,1.48-1.8c0.55-0.55,1.15-1.05,1.8-1.48c0.65-0.43,1.34-0.8,2.06-1.1
					c0.72-0.3,1.47-0.52,2.23-0.68C461.6,444.93,462.38,444.86,463.16,444.86z"/>
			</g>
		</g>
	</g>
	<g>
		<g>
			<g>
				<path class="st115" d="M448.44,553.71h160.92c0.85,0,1.68,0.08,2.52,0.25c0.83,0.17,1.64,0.41,2.42,0.73
					c0.78,0.32,1.53,0.72,2.23,1.19c0.7,0.47,1.36,1,1.95,1.6c0.6,0.6,1.13,1.25,1.6,1.95c0.47,0.7,0.87,1.45,1.19,2.23
					c0.32,0.78,0.57,1.59,0.73,2.42c0.17,0.83,0.25,1.67,0.25,2.51v38.66c0,0.85-0.08,1.68-0.25,2.51
					c-0.17,0.83-0.41,1.64-0.73,2.42c-0.32,0.78-0.72,1.52-1.19,2.23c-0.47,0.7-1,1.35-1.6,1.95c-0.6,0.6-1.25,1.13-1.95,1.6
					c-0.7,0.47-1.45,0.87-2.23,1.19c-0.78,0.32-1.59,0.57-2.42,0.73c-0.83,0.17-1.67,0.25-2.52,0.25H448.44
					c-0.85,0-1.68-0.08-2.52-0.25c-0.83-0.17-1.64-0.41-2.42-0.73c-0.78-0.32-1.53-0.72-2.23-1.19c-0.7-0.47-1.35-1-1.95-1.6
					c-0.6-0.6-1.13-1.25-1.6-1.95c-0.47-0.7-0.87-1.45-1.19-2.23c-0.32-0.78-0.57-1.59-0.73-2.42c-0.17-0.83-0.25-1.67-0.25-2.51
					v-38.66c0-0.85,0.08-1.68,0.25-2.51c0.17-0.83,0.41-1.64,0.73-2.42c0.32-0.78,0.72-1.52,1.19-2.23c0.47-0.7,1-1.35,1.6-1.95
					c0.6-0.6,1.25-1.13,1.95-1.6c0.7-0.47,1.45-0.87,2.23-1.19c0.78-0.32,1.59-0.57,2.42-0.73S447.59,553.71,448.44,553.71z"/>
				<path class="st116" d="M448.44,553.71h160.92c0.85,0,1.68,0.08,2.52,0.25c0.83,0.17,1.64,0.41,2.42,0.73
					c0.78,0.32,1.52,0.72,2.23,1.19c0.7,0.47,1.36,1,1.95,1.6c0.6,0.6,1.13,1.25,1.6,1.95c0.47,0.7,0.87,1.45,1.19,2.23
					c0.32,0.78,0.57,1.59,0.73,2.42c0.17,0.83,0.25,1.67,0.25,2.51v38.66c0,0.85-0.08,1.68-0.25,2.51
					c-0.17,0.83-0.41,1.64-0.73,2.42c-0.32,0.78-0.72,1.52-1.19,2.23c-0.47,0.7-1,1.35-1.6,1.95c-0.6,0.6-1.25,1.13-1.95,1.6
					s-1.45,0.87-2.23,1.19c-0.78,0.32-1.59,0.57-2.42,0.73c-0.83,0.17-1.67,0.25-2.52,0.25H448.44c-0.85,0-1.68-0.08-2.52-0.25
					c-0.83-0.17-1.64-0.41-2.42-0.73c-0.78-0.32-1.53-0.72-2.23-1.19s-1.36-1-1.95-1.6c-0.6-0.6-1.13-1.25-1.6-1.95
					c-0.47-0.7-0.87-1.45-1.19-2.23c-0.32-0.78-0.57-1.59-0.73-2.42c-0.17-0.83-0.25-1.67-0.25-2.51v-38.66
					c0-0.85,0.08-1.68,0.25-2.51c0.17-0.83,0.41-1.64,0.73-2.42c0.32-0.78,0.72-1.52,1.19-2.23c0.47-0.7,1-1.35,1.6-1.95
					c0.6-0.6,1.25-1.13,1.95-1.6c0.7-0.47,1.45-0.87,2.23-1.19c0.78-0.32,1.59-0.57,2.42-0.73
					C446.75,553.79,447.59,553.71,448.44,553.71z"/>
			</g>
		</g>
	</g>
	<g>
		<g>
			<g>
				<path class="st115" d="M463.16,754.12h131.48c0.78,0,1.56,0.08,2.32,0.23c0.77,0.15,1.51,0.38,2.23,0.68
					c0.72,0.3,1.41,0.67,2.06,1.1c0.65,0.43,1.25,0.93,1.8,1.48c0.55,0.55,1.05,1.15,1.48,1.8c0.43,0.65,0.8,1.34,1.1,2.06
					c0.3,0.72,0.52,1.47,0.68,2.23c0.15,0.77,0.23,1.54,0.23,2.32v35.69c0,0.78-0.08,1.55-0.23,2.32c-0.15,0.77-0.38,1.51-0.68,2.23
					c-0.3,0.72-0.67,1.41-1.1,2.06c-0.43,0.65-0.93,1.25-1.48,1.8c-0.55,0.55-1.15,1.05-1.8,1.48c-0.65,0.43-1.34,0.8-2.06,1.1
					c-0.72,0.3-1.47,0.52-2.23,0.68c-0.77,0.15-1.54,0.23-2.32,0.23H463.16c-0.78,0-1.56-0.08-2.32-0.23
					c-0.77-0.15-1.51-0.38-2.23-0.68c-0.72-0.3-1.41-0.67-2.06-1.1c-0.65-0.43-1.25-0.93-1.8-1.48c-0.55-0.55-1.05-1.15-1.48-1.8
					c-0.43-0.65-0.8-1.34-1.1-2.06c-0.3-0.72-0.52-1.47-0.68-2.23c-0.15-0.77-0.23-1.54-0.23-2.32v-35.69
					c0-0.78,0.08-1.55,0.23-2.32c0.15-0.77,0.38-1.51,0.68-2.23c0.3-0.72,0.67-1.41,1.1-2.06c0.43-0.65,0.93-1.25,1.48-1.8
					c0.55-0.55,1.15-1.05,1.8-1.48c0.65-0.43,1.34-0.8,2.06-1.1c0.72-0.3,1.47-0.52,2.23-0.68
					C461.6,754.2,462.38,754.12,463.16,754.12z"/>
				<path class="st116" d="M463.16,754.12h131.48c0.78,0,1.56,0.08,2.32,0.23s1.51,0.38,2.23,0.68c0.72,0.3,1.41,0.67,2.06,1.1
					c0.65,0.43,1.25,0.93,1.8,1.48c0.55,0.55,1.05,1.15,1.48,1.8c0.43,0.65,0.8,1.34,1.1,2.06s0.52,1.47,0.68,2.23
					c0.15,0.77,0.23,1.54,0.23,2.32v35.69c0,0.78-0.08,1.55-0.23,2.32s-0.38,1.51-0.68,2.23c-0.3,0.72-0.67,1.41-1.1,2.06
					c-0.43,0.65-0.93,1.25-1.48,1.8c-0.55,0.55-1.15,1.05-1.8,1.48c-0.65,0.43-1.34,0.8-2.06,1.1c-0.72,0.3-1.47,0.52-2.23,0.68
					c-0.77,0.15-1.54,0.23-2.32,0.23H463.16c-0.78,0-1.56-0.08-2.32-0.23s-1.51-0.38-2.23-0.68c-0.72-0.3-1.41-0.67-2.06-1.1
					c-0.65-0.43-1.25-0.93-1.8-1.48c-0.55-0.55-1.05-1.15-1.48-1.8c-0.43-0.65-0.8-1.34-1.1-2.06c-0.3-0.72-0.52-1.47-0.68-2.23
					s-0.23-1.54-0.23-2.32v-35.69c0-0.78,0.08-1.55,0.23-2.32c0.15-0.77,0.38-1.51,0.68-2.23c0.3-0.72,0.67-1.41,1.1-2.06
					c0.43-0.65,0.93-1.25,1.48-1.8c0.55-0.55,1.15-1.05,1.8-1.48c0.65-0.43,1.34-0.8,2.06-1.1c0.72-0.3,1.47-0.52,2.23-0.68
					S462.38,754.12,463.16,754.12z"/>
			</g>
		</g>
	</g>
	<g>
		<g>
			<g>
				<path class="st115" d="M463.16,662.72h131.48c0.78,0,1.56,0.08,2.32,0.23c0.77,0.15,1.51,0.38,2.23,0.68
					c0.72,0.3,1.41,0.67,2.06,1.1c0.65,0.43,1.25,0.93,1.8,1.48c0.55,0.55,1.05,1.15,1.48,1.8c0.43,0.65,0.8,1.34,1.1,2.06
					c0.3,0.72,0.52,1.47,0.68,2.23c0.15,0.77,0.23,1.54,0.23,2.32v35.69c0,0.78-0.08,1.55-0.23,2.32c-0.15,0.77-0.38,1.51-0.68,2.23
					c-0.3,0.72-0.67,1.41-1.1,2.06c-0.43,0.65-0.93,1.25-1.48,1.8c-0.55,0.55-1.15,1.05-1.8,1.48c-0.65,0.43-1.34,0.8-2.06,1.1
					c-0.72,0.3-1.47,0.52-2.23,0.68c-0.77,0.15-1.54,0.23-2.32,0.23H463.16c-0.78,0-1.56-0.08-2.32-0.23
					c-0.77-0.15-1.51-0.38-2.23-0.68c-0.72-0.3-1.41-0.67-2.06-1.1c-0.65-0.43-1.25-0.93-1.8-1.48c-0.55-0.55-1.05-1.15-1.48-1.8
					c-0.43-0.65-0.8-1.34-1.1-2.06c-0.3-0.72-0.52-1.47-0.68-2.23c-0.15-0.77-0.23-1.54-0.23-2.32v-35.69
					c0-0.78,0.08-1.55,0.23-2.32c0.15-0.77,0.38-1.51,0.68-2.23c0.3-0.72,0.67-1.41,1.1-2.06c0.43-0.65,0.93-1.25,1.48-1.8
					c0.55-0.55,1.15-1.05,1.8-1.48c0.65-0.43,1.34-0.8,2.06-1.1c0.72-0.3,1.47-0.52,2.23-0.68
					C461.6,662.8,462.38,662.72,463.16,662.72z"/>
				<path class="st116" d="M463.16,662.72h131.48c0.78,0,1.56,0.08,2.32,0.23s1.51,0.38,2.23,0.68c0.72,0.3,1.41,0.67,2.06,1.1
					c0.65,0.43,1.25,0.93,1.8,1.48c0.55,0.55,1.05,1.15,1.48,1.8c0.43,0.65,0.8,1.34,1.1,2.06c0.3,0.72,0.52,1.47,0.68,2.23
					c0.15,0.77,0.23,1.54,0.23,2.32v35.69c0,0.78-0.08,1.55-0.23,2.32c-0.15,0.77-0.38,1.51-0.68,2.23c-0.3,0.72-0.67,1.41-1.1,2.06
					c-0.43,0.65-0.93,1.25-1.48,1.8c-0.55,0.55-1.15,1.05-1.8,1.48c-0.65,0.43-1.34,0.8-2.06,1.1c-0.72,0.3-1.47,0.52-2.23,0.68
					c-0.77,0.15-1.54,0.23-2.32,0.23H463.16c-0.78,0-1.56-0.08-2.32-0.23s-1.51-0.38-2.23-0.68c-0.72-0.3-1.41-0.67-2.06-1.1
					c-0.65-0.43-1.25-0.93-1.8-1.48c-0.55-0.55-1.05-1.15-1.48-1.8c-0.43-0.65-0.8-1.34-1.1-2.06c-0.3-0.72-0.52-1.47-0.68-2.23
					c-0.15-0.77-0.23-1.54-0.23-2.32v-35.69c0-0.78,0.08-1.55,0.23-2.32c0.15-0.77,0.38-1.51,0.68-2.23c0.3-0.72,0.67-1.41,1.1-2.06
					c0.43-0.65,0.93-1.25,1.48-1.8c0.55-0.55,1.15-1.05,1.8-1.48c0.65-0.43,1.34-0.8,2.06-1.1c0.72-0.3,1.47-0.52,2.23-0.68
					S462.38,662.72,463.16,662.72z"/>
			</g>
		</g>
	</g>
	<g>
		<g>
			<g>
				<path class="st115" d="M463.16,259.6h131.48c0.78,0,1.56,0.08,2.32,0.23c0.77,0.15,1.51,0.38,2.23,0.68
					c0.72,0.3,1.41,0.67,2.06,1.1c0.65,0.43,1.25,0.93,1.8,1.48c0.55,0.55,1.05,1.15,1.48,1.8c0.43,0.65,0.8,1.34,1.1,2.06
					c0.3,0.72,0.52,1.47,0.68,2.23c0.15,0.77,0.23,1.54,0.23,2.32v35.69c0,0.78-0.08,1.55-0.23,2.32c-0.15,0.77-0.38,1.51-0.68,2.23
					c-0.3,0.72-0.67,1.41-1.1,2.06c-0.43,0.65-0.93,1.25-1.48,1.8c-0.55,0.55-1.15,1.05-1.8,1.48c-0.65,0.43-1.34,0.8-2.06,1.1
					c-0.72,0.3-1.47,0.52-2.23,0.68c-0.77,0.15-1.54,0.23-2.32,0.23H463.16c-0.78,0-1.56-0.08-2.32-0.23
					c-0.77-0.15-1.51-0.38-2.23-0.68c-0.72-0.3-1.41-0.67-2.06-1.1c-0.65-0.43-1.25-0.93-1.8-1.48c-0.55-0.55-1.05-1.15-1.48-1.8
					c-0.43-0.65-0.8-1.34-1.1-2.06c-0.3-0.72-0.52-1.47-0.68-2.23c-0.15-0.77-0.23-1.54-0.23-2.32V271.5c0-0.78,0.08-1.55,0.23-2.32
					c0.15-0.77,0.38-1.51,0.68-2.23c0.3-0.72,0.67-1.41,1.1-2.06c0.43-0.65,0.93-1.25,1.48-1.8c0.55-0.55,1.15-1.05,1.8-1.48
					c0.65-0.43,1.34-0.8,2.06-1.1c0.72-0.3,1.47-0.52,2.23-0.68C461.6,259.68,462.38,259.6,463.16,259.6z"/>
				<path class="st116" d="M463.16,259.6h131.48c0.78,0,1.56,0.08,2.32,0.23s1.51,0.38,2.23,0.68c0.72,0.3,1.41,0.67,2.06,1.1
					c0.65,0.43,1.25,0.93,1.8,1.48c0.55,0.55,1.05,1.15,1.48,1.8c0.43,0.65,0.8,1.34,1.1,2.06c0.3,0.72,0.52,1.47,0.68,2.23
					c0.15,0.77,0.23,1.54,0.23,2.32v35.69c0,0.78-0.08,1.55-0.23,2.32s-0.38,1.51-0.68,2.23c-0.3,0.72-0.67,1.41-1.1,2.06
					c-0.43,0.65-0.93,1.25-1.48,1.8c-0.55,0.55-1.15,1.05-1.8,1.48c-0.65,0.43-1.34,0.8-2.06,1.1c-0.72,0.3-1.47,0.52-2.23,0.68
					c-0.77,0.15-1.54,0.23-2.32,0.23H463.16c-0.78,0-1.56-0.08-2.32-0.23s-1.51-0.38-2.23-0.68c-0.72-0.3-1.41-0.67-2.06-1.1
					c-0.65-0.43-1.25-0.93-1.8-1.48c-0.55-0.55-1.05-1.15-1.48-1.8c-0.43-0.65-0.8-1.34-1.1-2.06c-0.3-0.72-0.52-1.47-0.68-2.23
					s-0.23-1.54-0.23-2.32V271.5c0-0.78,0.08-1.55,0.23-2.32c0.15-0.77,0.38-1.51,0.68-2.23c0.3-0.72,0.67-1.41,1.1-2.06
					c0.43-0.65,0.93-1.25,1.48-1.8c0.55-0.55,1.15-1.05,1.8-1.48c0.65-0.43,1.34-0.8,2.06-1.1c0.72-0.3,1.47-0.52,2.23-0.68
					S462.38,259.6,463.16,259.6z"/>
			</g>
		</g>
	</g>
	<g>
		<g>
			<g>
				<path class="st115" d="M463.16,352.42h131.48c0.78,0,1.56,0.08,2.32,0.23c0.77,0.15,1.51,0.38,2.23,0.68
					c0.72,0.3,1.41,0.67,2.06,1.1c0.65,0.43,1.25,0.93,1.8,1.48c0.55,0.55,1.05,1.15,1.48,1.8c0.43,0.65,0.8,1.34,1.1,2.06
					c0.3,0.72,0.52,1.47,0.68,2.23c0.15,0.77,0.23,1.54,0.23,2.32v35.69c0,0.78-0.08,1.55-0.23,2.32c-0.15,0.77-0.38,1.51-0.68,2.23
					c-0.3,0.72-0.67,1.41-1.1,2.06c-0.43,0.65-0.93,1.25-1.48,1.8c-0.55,0.55-1.15,1.05-1.8,1.48c-0.65,0.43-1.34,0.8-2.06,1.1
					c-0.72,0.3-1.47,0.52-2.23,0.68c-0.77,0.15-1.54,0.23-2.32,0.23H463.16c-0.78,0-1.56-0.08-2.32-0.23
					c-0.77-0.15-1.51-0.38-2.23-0.68c-0.72-0.3-1.41-0.67-2.06-1.1c-0.65-0.43-1.25-0.93-1.8-1.48c-0.55-0.55-1.05-1.15-1.48-1.8
					c-0.43-0.65-0.8-1.34-1.1-2.06c-0.3-0.72-0.52-1.47-0.68-2.23c-0.15-0.77-0.23-1.54-0.23-2.32v-35.69
					c0-0.78,0.08-1.55,0.23-2.32c0.15-0.77,0.38-1.51,0.68-2.23c0.3-0.72,0.67-1.41,1.1-2.06c0.43-0.65,0.93-1.25,1.48-1.8
					c0.55-0.55,1.15-1.05,1.8-1.48c0.65-0.43,1.34-0.8,2.06-1.1c0.72-0.3,1.47-0.52,2.23-0.68
					C461.6,352.49,462.38,352.42,463.16,352.42z"/>
				<path class="st116" d="M463.16,352.42h131.48c0.78,0,1.56,0.08,2.32,0.23s1.51,0.38,2.23,0.68c0.72,0.3,1.41,0.67,2.06,1.1
					c0.65,0.43,1.25,0.93,1.8,1.48c0.55,0.55,1.05,1.15,1.48,1.8c0.43,0.65,0.8,1.34,1.1,2.06c0.3,0.72,0.52,1.47,0.68,2.23
					c0.15,0.77,0.23,1.54,0.23,2.32v35.69c0,0.78-0.08,1.55-0.23,2.32c-0.15,0.77-0.38,1.51-0.68,2.23c-0.3,0.72-0.67,1.41-1.1,2.06
					c-0.43,0.65-0.93,1.25-1.48,1.8c-0.55,0.55-1.15,1.05-1.8,1.48c-0.65,0.43-1.34,0.8-2.06,1.1c-0.72,0.3-1.47,0.52-2.23,0.68
					c-0.77,0.15-1.54,0.23-2.32,0.23H463.16c-0.78,0-1.56-0.08-2.32-0.23s-1.51-0.38-2.23-0.68c-0.72-0.3-1.41-0.67-2.06-1.1
					c-0.65-0.43-1.25-0.93-1.8-1.48c-0.55-0.55-1.05-1.15-1.48-1.8c-0.43-0.65-0.8-1.34-1.1-2.06c-0.3-0.72-0.52-1.47-0.68-2.23
					c-0.15-0.77-0.23-1.54-0.23-2.32v-35.69c0-0.78,0.08-1.55,0.23-2.32c0.15-0.77,0.38-1.51,0.68-2.23c0.3-0.72,0.67-1.41,1.1-2.06
					c0.43-0.65,0.93-1.25,1.48-1.8c0.55-0.55,1.15-1.05,1.8-1.48c0.65-0.43,1.34-0.8,2.06-1.1c0.72-0.3,1.47-0.52,2.23-0.68
					S462.38,352.42,463.16,352.42z"/>
			</g>
		</g>
	</g>
	<g>
		<g>
			<g>
				<path class="st115" d="M796.9,804.59h60.55c0.36,0,0.72,0.03,1.07,0.1c0.35,0.07,0.7,0.17,1.03,0.31s0.65,0.3,0.95,0.5
					c0.3,0.2,0.58,0.42,0.83,0.68c0.25,0.25,0.48,0.53,0.68,0.82c0.2,0.3,0.37,0.61,0.51,0.94c0.14,0.33,0.24,0.67,0.31,1.02
					s0.11,0.7,0.11,1.06v16.31c0,0.36-0.04,0.71-0.11,1.06s-0.17,0.69-0.31,1.02c-0.14,0.33-0.31,0.64-0.51,0.94
					s-0.43,0.57-0.68,0.82c-0.25,0.25-0.53,0.48-0.83,0.68c-0.3,0.2-0.62,0.37-0.95,0.5c-0.33,0.14-0.68,0.24-1.03,0.31
					c-0.35,0.07-0.71,0.1-1.07,0.1H796.9c-0.36,0-0.72-0.03-1.07-0.1c-0.35-0.07-0.7-0.17-1.03-0.31c-0.33-0.14-0.65-0.3-0.95-0.5
					s-0.58-0.42-0.83-0.68c-0.25-0.25-0.48-0.53-0.68-0.82c-0.2-0.3-0.37-0.61-0.51-0.94c-0.14-0.33-0.24-0.67-0.31-1.02
					c-0.07-0.35-0.11-0.7-0.11-1.06v-16.31c0-0.36,0.04-0.71,0.11-1.06c0.07-0.35,0.17-0.69,0.31-1.02
					c0.14-0.33,0.31-0.64,0.51-0.94c0.2-0.3,0.43-0.57,0.68-0.82c0.25-0.25,0.53-0.48,0.83-0.68c0.3-0.2,0.62-0.37,0.95-0.5
					c0.33-0.14,0.68-0.24,1.03-0.31C796.18,804.63,796.54,804.59,796.9,804.59z"/>
				<path class="st116" d="M796.9,804.59h60.55c0.36,0,0.72,0.03,1.07,0.1c0.35,0.07,0.7,0.17,1.03,0.31
					c0.33,0.14,0.65,0.3,0.95,0.5s0.58,0.42,0.83,0.68s0.48,0.53,0.68,0.82c0.2,0.3,0.37,0.61,0.51,0.94s0.24,0.67,0.31,1.02
					c0.07,0.35,0.11,0.7,0.11,1.06v16.31c0,0.36-0.04,0.71-0.11,1.06c-0.07,0.35-0.17,0.69-0.31,1.02s-0.31,0.64-0.51,0.94
					c-0.2,0.3-0.43,0.57-0.68,0.82s-0.53,0.48-0.83,0.68s-0.62,0.37-0.95,0.5c-0.33,0.14-0.68,0.24-1.03,0.31
					c-0.35,0.07-0.71,0.1-1.07,0.1H796.9c-0.36,0-0.72-0.03-1.07-0.1c-0.35-0.07-0.7-0.17-1.03-0.31c-0.33-0.14-0.65-0.3-0.95-0.5
					c-0.3-0.2-0.58-0.42-0.83-0.68s-0.48-0.53-0.68-0.82c-0.2-0.3-0.37-0.61-0.51-0.94s-0.24-0.67-0.31-1.02s-0.11-0.7-0.11-1.06
					v-16.31c0-0.36,0.04-0.71,0.11-1.06s0.17-0.69,0.31-1.02s0.31-0.64,0.51-0.94c0.2-0.3,0.43-0.57,0.68-0.82s0.53-0.48,0.83-0.68
					c0.3-0.2,0.62-0.37,0.95-0.5c0.33-0.14,0.68-0.24,1.03-0.31C796.18,804.63,796.54,804.59,796.9,804.59z"/>
			</g>
		</g>
	</g>
	<rect x="481.34" y="92.52" class="st143" width="95.13" height="29.6"/>
	<text transform="matrix(1 0 0 1 482.7839 109.1736)" class="st144 st145 st146">Collaboration</text>
	<rect x="488.21" y="188.9" class="st143" width="81.39" height="29.6"/>
	<text transform="matrix(1 0 0 1 488.9349 205.5533)" class="st144 st145 st146">Automation</text>
	<rect x="470.59" y="277.75" class="st143" width="116.63" height="50.41"/>
	<text transform="matrix(1 0 0 1 475.3452 294.4042)" class="st144 st145 st146">History tracking</text>
	<rect x="478.63" y="369.64" class="st143" width="100.54" height="50.41"/>
	<text transform="matrix(1 0 0 1 479.0517 386.2978)" class="st144 st145 st146">Quality control</text>
	<rect x="486.67" y="451.6" class="st143" width="84.45" height="50.41"/>
	<text transform="matrix(1 0 0 1 500.4548 468.2553)"><tspan x="0" y="0" class="st144 st145 st146">Methods </tspan><tspan x="-9.24" y="26.4" class="st144 st145 st146">verification</tspan></text>
	<rect x="444.6" y="563.43" class="st143" width="168.61" height="50.41"/>
	<text transform="matrix(1 0 0 1 462.1484 580.085)"><tspan x="0" y="0" class="st144 st145 st146">Analysis and results </tspan><tspan x="23.59" y="26.4" class="st144 st145 st146">reproduction</tspan></text>
	<rect x="461.06" y="669.13" class="st143" width="135.67" height="50.41"/>
	<text transform="matrix(1 0 0 1 467.9228 685.787)"><tspan x="0" y="0" class="st144 st145 st146">Methods and code </tspan><tspan x="25.39" y="26.4" class="st144 st145 st146">reusability</tspan></text>
	<rect x="453.31" y="770.24" class="st143" width="151.17" height="50.41"/>
	<text transform="matrix(1 0 0 1 462.0198 786.8935)" class="st144 st145 st146">Instrumentalization</text>
	<rect x="854.88" y="809.24" class="st143" width="118.37" height="22.7"/>
	<text transform="matrix(1 0 0 1 872.2087 825.8907)" class="st144 st147 st146">Potential benefit</text>
	<rect x="859.99" y="769.58" class="st143" width="118.37" height="22.7"/>
	<text transform="matrix(1 0 0 1 872.8785 786.2311)" class="st144 st147 st146">Protocol’s section</text>
	<g>
		<g>
			<g>
				<path class="st111" d="M796.35,765.23h61.96c0.29,0,0.57,0.04,0.85,0.11c0.28,0.07,0.56,0.17,0.82,0.31
					c0.27,0.14,0.52,0.31,0.76,0.51c0.24,0.2,0.46,0.43,0.66,0.68s0.38,0.53,0.54,0.83c0.16,0.3,0.29,0.62,0.4,0.95
					c0.11,0.33,0.19,0.68,0.25,1.03c0.06,0.35,0.08,0.71,0.08,1.07v16.47c0,0.36-0.03,0.72-0.08,1.07c-0.06,0.35-0.14,0.7-0.25,1.03
					c-0.11,0.33-0.24,0.65-0.4,0.95c-0.16,0.3-0.34,0.58-0.54,0.83c-0.2,0.25-0.42,0.48-0.66,0.68c-0.24,0.2-0.49,0.37-0.76,0.51
					c-0.27,0.14-0.54,0.24-0.82,0.31c-0.28,0.07-0.57,0.11-0.85,0.11h-61.96c-0.29,0-0.57-0.04-0.85-0.11
					c-0.28-0.07-0.56-0.17-0.82-0.31c-0.27-0.14-0.52-0.31-0.76-0.51c-0.24-0.2-0.46-0.43-0.66-0.68c-0.2-0.25-0.39-0.53-0.54-0.83
					c-0.16-0.3-0.29-0.62-0.4-0.95c-0.11-0.33-0.19-0.68-0.25-1.03c-0.06-0.35-0.08-0.71-0.08-1.07v-16.47
					c0-0.36,0.03-0.72,0.08-1.07c0.06-0.35,0.14-0.7,0.25-1.03c0.11-0.33,0.24-0.65,0.4-0.95c0.16-0.3,0.34-0.58,0.54-0.83
					c0.2-0.25,0.42-0.48,0.66-0.68s0.49-0.37,0.76-0.51s0.54-0.24,0.82-0.31C795.78,765.27,796.06,765.23,796.35,765.23z"/>
				<path class="st112" d="M796.35,765.23h61.96c0.29,0,0.57,0.04,0.85,0.11s0.56,0.17,0.82,0.31s0.52,0.31,0.76,0.51
					s0.46,0.43,0.66,0.68c0.2,0.25,0.38,0.53,0.54,0.83c0.16,0.3,0.29,0.62,0.4,0.95c0.11,0.33,0.19,0.68,0.25,1.03
					s0.08,0.71,0.08,1.07v16.47c0,0.36-0.03,0.72-0.08,1.07s-0.14,0.7-0.25,1.03c-0.11,0.33-0.24,0.65-0.4,0.95
					c-0.16,0.3-0.34,0.58-0.54,0.83c-0.2,0.25-0.42,0.48-0.66,0.68s-0.49,0.37-0.76,0.51c-0.27,0.14-0.54,0.24-0.82,0.31
					c-0.28,0.07-0.57,0.11-0.85,0.11h-61.96c-0.29,0-0.57-0.04-0.85-0.11c-0.28-0.07-0.56-0.17-0.82-0.31
					c-0.27-0.14-0.52-0.31-0.76-0.51c-0.24-0.2-0.46-0.43-0.66-0.68c-0.2-0.25-0.39-0.53-0.54-0.83c-0.16-0.3-0.29-0.62-0.4-0.95
					c-0.11-0.33-0.19-0.68-0.25-1.03c-0.06-0.35-0.08-0.71-0.08-1.07v-16.47c0-0.36,0.03-0.72,0.08-1.07
					c0.06-0.35,0.14-0.7,0.25-1.03c0.11-0.33,0.24-0.65,0.4-0.95c0.16-0.3,0.34-0.58,0.54-0.83s0.42-0.48,0.66-0.68
					c0.24-0.2,0.49-0.37,0.76-0.51s0.54-0.24,0.82-0.31C795.78,765.27,796.06,765.23,796.35,765.23z"/>
			</g>
		</g>
	</g>
</g>
</svg>
